<?xml version="1.0" encoding="utf-8"?>
<!-- Generator: Adobe Illustrator 21.1.0, SVG Export Plug-In . SVG Version: 6.00 Build 0)  -->
<svg version="1.1" id="Layer_1" xmlns="http://www.w3.org/2000/svg" xmlns:xlink="http://www.w3.org/1999/xlink" x="0px" y="0px"
	 viewBox="0 0 251 218" enable-background="new 0 0 251 218" xml:space="preserve">
<polygon id="Fill-2" fill="#FB8C00" points="63.342,0.578 0.85,108.835 63.357,217.101 188.357,217.11 250.85,108.853 
	188.342,0.587 "/>
<polygon id="Fill-3" fill="#F57C00" points="75.021,20.807 24.205,108.837 75.034,196.875 176.678,196.882 227.495,108.852 
	176.667,20.814 "/>
<path id="Fill-4" fill="#FFFFFF" d="M221.14,109.119l-47.537,82.355l-95.091-0.008l-47.545-82.352l47.537-82.355l95.091,0.009
	L221.14,109.119z M75.022,20.806l-50.817,88.031l50.829,88.037l101.645,0.008l50.816-88.031l-50.829-88.037L75.022,20.806z"/>
<path fill="#FFFFFF" d="M102.406,194.208h46.996V174.33h-46.996V194.208z M120.72,166.8h10.26v-39.644h-10.26V166.8z
	 M108.579,111.933c-1.699,0-3.081,1.382-3.081,3.081s1.382,3.081,3.081,3.081h3.081v-3.081
	C111.66,113.315,110.277,111.933,108.579,111.933 M146.203,115.014c0-1.699-1.382-3.081-3.081-3.081
	c-1.699,0-3.081,1.382-3.081,3.081v3.081h3.081C144.821,118.095,146.203,116.713,146.203,115.014 M125.85,52.027
	c-27.619,0-50.009,22.389-50.009,50.008c0,13.662,5.479,26.044,14.358,35.07l0.004-0.004c6.074,6.054,10.41,13.851,12.203,22.576
	v7.123h9.253v-39.644h-3.081c-6.695,0-12.143-5.447-12.143-12.142c0-6.695,5.448-12.142,12.143-12.142
	c6.695,0,12.142,5.447,12.142,12.142v3.081h10.259v-3.081c0-6.695,5.448-12.142,12.142-12.142c6.696,0,12.143,5.447,12.143,12.142
	c0,6.695-5.447,12.142-12.143,12.142h-3.081V166.8h9.253v-7.123c1.793-8.725,6.129-16.522,12.204-22.576l0.003,0.004
	c8.88-9.026,14.358-21.408,14.358-35.07C175.858,74.416,153.469,52.027,125.85,52.027"/>
</svg>
