<?xml version="1.0" encoding="UTF-8" standalone="no"?>
<svg width="75px" height="65px" viewBox="0 0 75 65" version="1.1" xmlns="http://www.w3.org/2000/svg" xmlns:xlink="http://www.w3.org/1999/xlink">
   
   
                <path d="M82.7573,66.2768631 L82.7573,65.3522927 C82.7573,64.8422781 83.1719,64.427122 83.6816,64.427122 C84.191,64.427122 84.6059,64.8422781 84.6059,65.3522927 C84.6059,65.8620072 84.191,66.2768631 83.6816,66.2768631 L82.7573,66.2768631 Z M89.1953,71.9836838 L89.1941,71.982483 C87.3716,73.7998042 86.0708,76.1400479 85.5329,78.7591637 L85.5329,80.8973828 L82.7573,80.8973828 L82.7573,68.9971413 L83.6816,68.9971413 C85.6898,68.9971413 87.3242,67.3617324 87.3242,65.3522927 C87.3242,63.3425529 85.6898,61.7071439 83.6816,61.7071439 C81.6731,61.7071439 80.0387,63.3425529 80.0387,65.3522927 L80.0387,66.2768631 L76.961,66.2768631 L76.961,65.3522927 C76.961,63.3425529 75.3269,61.7071439 73.3184,61.7071439 C71.3099,61.7071439 69.6758,63.3425529 69.6758,65.3522927 C69.6758,67.3617324 71.3099,68.9971413 73.3184,68.9971413 L74.2427,68.9971413 L74.2427,80.8973828 L71.4668,80.8973828 L71.4668,78.7591637 C70.9289,76.1400479 69.6281,73.7998042 67.8059,71.982483 L67.8047,71.9836838 C65.141,69.2742122 63.4973,65.5573192 63.4973,61.4561891 C63.4973,53.1653743 70.2143,46.4445281 78.5,46.4445281 C86.7857,46.4445281 93.5024,53.1653743 93.5024,61.4561891 C93.5024,65.5573192 91.859,69.2742122 89.1953,71.9836838 L89.1953,71.9836838 Z M76.9607,80.8973828 L80.0387,80.8973828 L80.0387,68.9968411 L76.9607,68.9968411 L76.9607,80.8973828 Z M74.2427,66.2768631 L73.3184,66.2768631 C72.8087,66.2768631 72.3941,65.8620072 72.3941,65.3522927 C72.3941,64.8422781 72.8087,64.427122 73.3184,64.427122 C73.8281,64.427122 74.2427,64.8422781 74.2427,65.3522927 L74.2427,66.2768631 Z M92.8232,38.8618502 L64.2962,38.8591485 L50.0348,63.5812001 L64.2986,88.3017508 L71.4668,88.3023511 L71.4668,83.1577773 L85.5656,83.1577773 L85.5656,88.3038521 L92.8259,88.3044524 L107.087,63.5824008 L92.8232,38.8618502 Z M93.7487,89.9275538 L63.2552,89.9254525 L48.0065,63.4977486 L63.2513,37.0724462 L93.7448,37.0745475 L108.9932,63.5022514 L93.7487,89.9275538 Z M97.2476,31.0027017 L59.7476,31 L41,63.4974484 L59.7521,95.9972983 L97.2521,96 L116,63.5025516 L97.2476,31.0027017 Z" id="Logo"></path>
  
</svg>