<?xml version="1.0" encoding="UTF-8" standalone="no"?>
<svg width="251px" height="218px" viewBox="0 0 251 218" version="1.1" xmlns="http://www.w3.org/2000/svg" xmlns:xlink="http://www.w3.org/1999/xlink">
    <!-- Generator: Sketch 47.1 (45422) - http://www.bohemiancoding.com/sketch -->
    <title>Page 1</title>
    <desc>Created with Sketch.</desc>
    <defs></defs>
    <g id="Symbols" stroke="none" stroke-width="1" fill="none" fill-rule="evenodd">
        <g id="organisms/welcome_block" transform="translate(-47.000000, -53.000000)">
            <g id="Page-1" transform="translate(47.000000, 53.000000)">
                <polygon id="Fill-2" fill="#FB8C00" points="63.3423 0.5781 0.8503 108.8351 63.3573 217.1011 188.3573 217.1101 250.8503 108.8531 188.3423 0.5871"></polygon>
                <polygon id="Fill-3" fill="#F57C00" points="75.0215 20.8066 24.2055 108.8366 75.0335 196.8746 176.6785 196.8816 227.4945 108.8516 176.6665 20.8136"></polygon>
                <path d="M221.1396,109.1191 L173.6026,191.4741 L78.5116,191.4661 L30.9666,109.1141 L78.5036,26.7591 L173.5946,26.7681 L221.1396,109.1191 Z M75.0216,20.8061 L24.2046,108.8371 L75.0336,196.8741 L176.6786,196.8821 L227.4946,108.8511 L176.6656,20.8141 L75.0216,20.8061 Z" id="Fill-4" fill="#FFFFFF"></path>
                <polygon id="Fill-5" fill="#FFFFFF" points="102.406 194.208 149.402 194.208 149.402 174.33 102.406 174.33"></polygon>
                <polygon id="Fill-6" fill="#FFFFFF" points="120.72 166.8 130.98 166.8 130.98 127.156 120.72 127.156"></polygon>
                <g id="Group-13" transform="translate(75.000000, 52.000000)" fill="#FFFFFF">
                    <path d="M33.5786,59.9331 C31.8796,59.9331 30.4976,61.3151 30.4976,63.0141 C30.4976,64.7131 31.8796,66.0951 33.5786,66.0951 L36.6596,66.0951 L36.6596,63.0141 C36.6596,61.3151 35.2766,59.9331 33.5786,59.9331" id="Fill-7"></path>
                    <path d="M71.2026,63.0142 C71.2026,61.3152 69.8206,59.9332 68.1216,59.9332 C66.4226,59.9332 65.0406,61.3152 65.0406,63.0142 L65.0406,66.0952 L68.1216,66.0952 C69.8206,66.0952 71.2026,64.7132 71.2026,63.0142" id="Fill-9"></path>
                    <path d="M50.8501,0.0273 C23.2311,0.0273 0.8411,22.4163 0.8411,50.0353 C0.8411,63.6973 6.3201,76.0793 15.1991,85.1053 L15.2031,85.1013 C21.2771,91.1553 25.6131,98.9523 27.4061,107.6773 L27.4061,114.8003 L36.6591,114.8003 L36.6591,75.1563 L33.5781,75.1563 C26.8831,75.1563 21.4351,69.7093 21.4351,63.0143 C21.4351,56.3193 26.8831,50.8723 33.5781,50.8723 C40.2731,50.8723 45.7201,56.3193 45.7201,63.0143 L45.7201,66.0953 L55.9791,66.0953 L55.9791,63.0143 C55.9791,56.3193 61.4271,50.8723 68.1211,50.8723 C74.8171,50.8723 80.2641,56.3193 80.2641,63.0143 C80.2641,69.7093 74.8171,75.1563 68.1211,75.1563 L65.0401,75.1563 L65.0401,114.8003 L74.2931,114.8003 L74.2931,107.6773 C76.0861,98.9523 80.4221,91.1553 86.4971,85.1013 L86.5001,85.1053 C95.3801,76.0793 100.8581,63.6973 100.8581,50.0353 C100.8581,22.4163 78.4691,0.0273 50.8501,0.0273" id="Fill-11"></path>
                </g>
            </g>
        </g>
    </g>
</svg>