<?xml version="1.0" encoding="utf-8"?>
<!-- Generator: Adobe Illustrator 21.1.0, SVG Export Plug-In . SVG Version: 6.00 Build 0)  -->
<svg version="1.1" id="Layer_1" xmlns="http://www.w3.org/2000/svg" xmlns:xlink="http://www.w3.org/1999/xlink" x="0px" y="0px"
	 viewBox="0 0 1630 820" enable-background="new 0 0 1630 820" xml:space="preserve">
<rect fill="#37474F" width="1630" height="820"/>
<g opacity="0.11">
	<path fill="#90A4AE" d="M265.28,213.815H141.695L79.902,320.844l61.793,107.029H265.28l61.793-107.029L265.28,213.815z
		 M248.272,398.413h-89.569l-44.785-77.57l44.785-77.569h89.569l44.785,77.569L248.272,398.413z"/>
	<path fill="#90A4AE" d="M237.063,262.688h-67.152l-33.576,58.155l33.576,58.155h67.152l33.576-58.155L237.063,262.688z
		 M227.822,362.992h-48.669l-24.334-42.148l24.334-42.148h48.669l24.334,42.148L227.822,362.992z"/>
	<path fill="#90A4AE" d="M215.739,299.623h-24.503l-12.252,21.221l12.252,21.221h24.503l12.252-21.221L215.739,299.623z
		 M212.367,336.223h-17.759l-8.879-15.38l8.879-15.38h17.759l8.879,15.38L212.367,336.223z"/>
	<g>
		<path fill="#90A4AE" d="M276.124,446.654H130.851l-72.638-125.81l72.638-125.812h145.274l72.637,125.811L276.124,446.654z
			 M133.144,442.681H273.83l70.343-121.837l-70.342-121.838H133.144L62.802,320.844L133.144,442.681z"/>
	</g>
	<g>
		<polygon fill="#90A4AE" points="279.126,202.302 276.316,199.492 283.805,192.003 557.513,192.003 557.513,195.977 
			285.451,195.977 		"/>
	</g>
	<polygon fill="#90A4AE" points="550.896,205.45 544.28,193.99 550.896,182.53 564.13,182.53 570.746,193.99 564.13,205.45 	"/>
	<polygon fill="#90A4AE" points="457.47,249.487 450.854,238.027 457.47,226.567 470.703,226.567 477.32,238.027 470.703,249.487 	
		"/>
	<polygon fill="#90A4AE" points="424.884,158.899 418.267,147.439 424.884,135.979 438.117,135.979 444.734,147.439 
		438.117,158.899 	"/>
	<polygon fill="#90A4AE" points="424.884,158.899 418.267,147.439 424.884,135.979 438.117,135.979 444.734,147.439 
		438.117,158.899 	"/>
	<polygon fill="#90A4AE" points="692.714,332.304 686.098,320.844 692.714,309.383 705.948,309.383 712.564,320.844 
		705.948,332.304 	"/>
	<polygon fill="#90A4AE" points="569.25,386.795 562.634,375.335 569.25,363.874 582.483,363.874 589.1,375.335 582.483,386.795 	
		"/>
	<polygon fill="#90A4AE" points="564.13,278.704 557.513,267.243 564.13,255.783 577.363,255.783 583.979,267.243 577.363,278.704 	
		"/>
	<polygon fill="#90A4AE" points="640.774,476.841 634.158,465.38 640.774,453.92 654.008,453.92 660.624,465.38 654.008,476.841 	
		"/>
	<polygon fill="#90A4AE" points="476.704,509.112 470.088,497.652 476.704,486.191 489.937,486.191 496.554,497.652 
		489.937,509.112 	"/>
	<g>
		<polygon fill="#90A4AE" points="317.725,270.032 314.915,267.223 345.484,236.654 464.087,236.654 464.087,240.627 
			347.13,240.627 		"/>
	</g>
	<g>
		<rect x="346.467" y="318.857" fill="#90A4AE" width="352.864" height="3.974"/>
	</g>
	<g>
		
			<rect x="377.454" y="184.872" transform="matrix(0.7071 -0.7071 0.7071 0.7071 -41.6068 331.5735)" fill="#90A4AE" width="3.974" height="62.276"/>
	</g>
	<g>
		<polygon fill="#90A4AE" points="327.458,195.395 324.648,192.586 371.781,145.452 431.501,145.452 431.501,149.426 
			373.427,149.426 		"/>
	</g>
	<g>
		<polygon fill="#90A4AE" points="575.867,377.321 449.164,377.321 394.091,322.248 396.9,319.439 450.809,373.348 575.867,373.348 
					"/>
	</g>
	<g>
		<polygon fill="#90A4AE" points="647.391,467.367 415.824,467.367 415.243,466.785 317.846,369.388 320.656,366.579 
			417.47,463.394 647.391,463.394 		"/>
	</g>
	<g>
		
			<rect x="366.692" y="395.101" transform="matrix(0.707 -0.7072 0.7072 0.707 -160.6357 406.4447)" fill="#90A4AE" width="87.029" height="3.974"/>
	</g>
	<g>
		<polygon fill="#90A4AE" points="335.621,301.028 332.811,298.219 365.772,265.257 570.746,265.257 570.746,269.23 367.418,269.23 
					"/>
	</g>
	<g>
		<polygon fill="#90A4AE" points="485.681,499.638 353.631,499.638 283.269,429.277 286.079,426.467 355.277,495.665 
			485.681,495.665 		"/>
	</g>
	<g>
		<g opacity="0.33">
			<polygon fill="#90A4AE" points="200.257,128.521 197.992,124.598 200.257,120.676 204.786,120.676 207.05,124.598 
				204.786,128.521 			"/>
			<polygon fill="#90A4AE" points="213.88,128.521 211.616,124.598 213.88,120.676 218.409,120.676 220.674,124.598 
				218.409,128.521 			"/>
			<polygon fill="#90A4AE" points="227.504,128.521 225.239,124.598 227.504,120.676 232.033,120.676 234.298,124.598 
				232.033,128.521 			"/>
			<polygon fill="#90A4AE" points="241.127,128.521 238.863,124.598 241.127,120.676 245.657,120.676 247.921,124.598 
				245.657,128.521 			"/>
			<polygon fill="#90A4AE" points="254.751,128.521 252.487,124.598 254.751,120.676 259.28,120.676 261.545,124.598 
				259.28,128.521 			"/>
			<polygon fill="#90A4AE" points="268.375,128.521 266.11,124.598 268.375,120.676 272.904,120.676 275.169,124.598 
				272.904,128.521 			"/>
			<polygon fill="#90A4AE" points="281.998,128.521 279.734,124.598 281.998,120.676 286.528,120.676 288.792,124.598 
				286.528,128.521 			"/>
			<polygon fill="#90A4AE" points="295.622,128.521 293.357,124.598 295.622,120.676 300.151,120.676 302.416,124.598 
				300.151,128.521 			"/>
			<polygon fill="#90A4AE" points="309.246,128.521 306.981,124.598 309.246,120.676 313.775,120.676 316.039,124.598 
				313.775,128.521 			"/>
			<polygon fill="#90A4AE" points="322.869,128.521 320.605,124.598 322.869,120.676 327.398,120.676 329.663,124.598 
				327.398,128.521 			"/>
			<polygon fill="#90A4AE" points="336.493,128.521 334.228,124.598 336.493,120.676 341.022,120.676 343.287,124.598 
				341.022,128.521 			"/>
		</g>
		<g opacity="0.33">
			<polygon fill="#90A4AE" points="339.831,128.521 337.567,124.598 339.831,120.676 344.361,120.676 346.625,124.598 
				344.361,128.521 			"/>
			<polygon fill="#90A4AE" points="353.455,128.521 351.19,124.598 353.455,120.676 357.984,120.676 360.249,124.598 
				357.984,128.521 			"/>
			<polygon fill="#90A4AE" points="367.079,128.521 364.814,124.598 367.079,120.676 371.608,120.676 373.872,124.598 
				371.608,128.521 			"/>
			<polygon fill="#90A4AE" points="380.702,128.521 378.438,124.598 380.702,120.676 385.231,120.676 387.496,124.598 
				385.231,128.521 			"/>
			<polygon fill="#90A4AE" points="394.326,128.521 392.061,124.598 394.326,120.676 398.855,120.676 401.12,124.598 
				398.855,128.521 			"/>
			<polygon fill="#90A4AE" points="407.95,128.521 405.685,124.598 407.95,120.676 412.479,120.676 414.743,124.598 
				412.479,128.521 			"/>
			<polygon fill="#90A4AE" points="421.573,128.521 419.309,124.598 421.573,120.676 426.102,120.676 428.367,124.598 
				426.102,128.521 			"/>
			<polygon fill="#90A4AE" points="435.197,128.521 432.932,124.598 435.197,120.676 439.726,120.676 441.991,124.598 
				439.726,128.521 			"/>
			<polygon fill="#90A4AE" points="448.82,128.521 446.556,124.598 448.82,120.676 453.35,120.676 455.614,124.598 453.35,128.521 
							"/>
			<polygon fill="#90A4AE" points="462.444,128.521 460.179,124.598 462.444,120.676 466.973,120.676 469.238,124.598 
				466.973,128.521 			"/>
			<polygon fill="#90A4AE" points="476.068,128.521 473.803,124.598 476.068,120.676 480.597,120.676 482.862,124.598 
				480.597,128.521 			"/>
		</g>
	</g>
	<g>
		<g opacity="0.33">
			<polygon fill="#90A4AE" points="200.257,529.255 197.992,525.333 200.257,521.411 204.786,521.411 207.05,525.333 
				204.786,529.255 			"/>
			<polygon fill="#90A4AE" points="213.88,529.255 211.616,525.333 213.88,521.411 218.409,521.411 220.674,525.333 
				218.409,529.255 			"/>
			<polygon fill="#90A4AE" points="227.504,529.255 225.239,525.333 227.504,521.411 232.033,521.411 234.298,525.333 
				232.033,529.255 			"/>
			<polygon fill="#90A4AE" points="241.127,529.255 238.863,525.333 241.127,521.411 245.657,521.411 247.921,525.333 
				245.657,529.255 			"/>
			<polygon fill="#90A4AE" points="254.751,529.255 252.487,525.333 254.751,521.411 259.28,521.411 261.545,525.333 
				259.28,529.255 			"/>
			<polygon fill="#90A4AE" points="268.375,529.255 266.11,525.333 268.375,521.411 272.904,521.411 275.169,525.333 
				272.904,529.255 			"/>
			<polygon fill="#90A4AE" points="281.998,529.255 279.734,525.333 281.998,521.411 286.528,521.411 288.792,525.333 
				286.528,529.255 			"/>
			<polygon fill="#90A4AE" points="295.622,529.255 293.357,525.333 295.622,521.411 300.151,521.411 302.416,525.333 
				300.151,529.255 			"/>
			<polygon fill="#90A4AE" points="309.246,529.255 306.981,525.333 309.246,521.411 313.775,521.411 316.039,525.333 
				313.775,529.255 			"/>
			<polygon fill="#90A4AE" points="322.869,529.255 320.605,525.333 322.869,521.411 327.398,521.411 329.663,525.333 
				327.398,529.255 			"/>
			<polygon fill="#90A4AE" points="336.493,529.255 334.228,525.333 336.493,521.411 341.022,521.411 343.287,525.333 
				341.022,529.255 			"/>
		</g>
		<g opacity="0.33">
			<polygon fill="#90A4AE" points="339.831,529.255 337.567,525.333 339.831,521.411 344.361,521.411 346.625,525.333 
				344.361,529.255 			"/>
			<polygon fill="#90A4AE" points="353.455,529.255 351.19,525.333 353.455,521.411 357.984,521.411 360.249,525.333 
				357.984,529.255 			"/>
			<polygon fill="#90A4AE" points="367.079,529.255 364.814,525.333 367.079,521.411 371.608,521.411 373.872,525.333 
				371.608,529.255 			"/>
			<polygon fill="#90A4AE" points="380.702,529.255 378.438,525.333 380.702,521.411 385.231,521.411 387.496,525.333 
				385.231,529.255 			"/>
			<polygon fill="#90A4AE" points="394.326,529.255 392.061,525.333 394.326,521.411 398.855,521.411 401.12,525.333 
				398.855,529.255 			"/>
			<polygon fill="#90A4AE" points="407.95,529.255 405.685,525.333 407.95,521.411 412.479,521.411 414.743,525.333 
				412.479,529.255 			"/>
			<polygon fill="#90A4AE" points="421.573,529.255 419.309,525.333 421.573,521.411 426.102,521.411 428.367,525.333 
				426.102,529.255 			"/>
			<polygon fill="#90A4AE" points="435.197,529.255 432.932,525.333 435.197,521.411 439.726,521.411 441.991,525.333 
				439.726,529.255 			"/>
			<polygon fill="#90A4AE" points="448.82,529.255 446.556,525.333 448.82,521.411 453.35,521.411 455.614,525.333 453.35,529.255 
							"/>
			<polygon fill="#90A4AE" points="462.444,529.255 460.179,525.333 462.444,521.411 466.973,521.411 469.238,525.333 
				466.973,529.255 			"/>
			<polygon fill="#90A4AE" points="476.068,529.255 473.803,525.333 476.068,521.411 480.597,521.411 482.862,525.333 
				480.597,529.255 			"/>
		</g>
	</g>
	<g>
		<g opacity="0.33">
			<polygon fill="#90A4AE" points="80.504,576.938 78.239,573.016 80.504,569.093 85.033,569.093 87.298,573.016 85.033,576.938 			
				"/>
			<polygon fill="#90A4AE" points="94.127,576.938 91.863,573.016 94.127,569.093 98.657,569.093 100.921,573.016 98.657,576.938 
							"/>
			<polygon fill="#90A4AE" points="107.751,576.938 105.486,573.016 107.751,569.093 112.28,569.093 114.545,573.016 
				112.28,576.938 			"/>
			<polygon fill="#90A4AE" points="121.375,576.938 119.11,573.016 121.375,569.093 125.904,569.093 128.169,573.016 
				125.904,576.938 			"/>
			<polygon fill="#90A4AE" points="134.998,576.938 132.734,573.016 134.998,569.093 139.528,569.093 141.792,573.016 
				139.528,576.938 			"/>
			<polygon fill="#90A4AE" points="148.622,576.938 146.357,573.016 148.622,569.093 153.151,569.093 155.416,573.016 
				153.151,576.938 			"/>
			<polygon fill="#90A4AE" points="162.246,576.938 159.981,573.016 162.246,569.093 166.775,569.093 169.039,573.016 
				166.775,576.938 			"/>
			<polygon fill="#90A4AE" points="175.869,576.938 173.605,573.016 175.869,569.093 180.398,569.093 182.663,573.016 
				180.398,576.938 			"/>
			<polygon fill="#90A4AE" points="189.493,576.938 187.228,573.016 189.493,569.093 194.022,569.093 196.287,573.016 
				194.022,576.938 			"/>
			<polygon fill="#90A4AE" points="203.117,576.938 200.852,573.016 203.117,569.093 207.646,569.093 209.91,573.016 
				207.646,576.938 			"/>
			<polygon fill="#90A4AE" points="216.74,576.938 214.476,573.016 216.74,569.093 221.269,569.093 223.534,573.016 
				221.269,576.938 			"/>
		</g>
		<g opacity="0.33">
			<polygon fill="#90A4AE" points="220.079,576.938 217.814,573.016 220.079,569.093 224.608,569.093 226.872,573.016 
				224.608,576.938 			"/>
			<polygon fill="#90A4AE" points="233.702,576.938 231.438,573.016 233.702,569.093 238.231,569.093 240.496,573.016 
				238.231,576.938 			"/>
			<polygon fill="#90A4AE" points="247.326,576.938 245.061,573.016 247.326,569.093 251.855,569.093 254.12,573.016 
				251.855,576.938 			"/>
			<polygon fill="#90A4AE" points="260.95,576.938 258.685,573.016 260.95,569.093 265.479,569.093 267.743,573.016 
				265.479,576.938 			"/>
			<polygon fill="#90A4AE" points="274.573,576.938 272.309,573.016 274.573,569.093 279.102,569.093 281.367,573.016 
				279.102,576.938 			"/>
			<polygon fill="#90A4AE" points="288.197,576.938 285.932,573.016 288.197,569.093 292.726,569.093 294.991,573.016 
				292.726,576.938 			"/>
			<polygon fill="#90A4AE" points="301.82,576.938 299.556,573.016 301.82,569.093 306.35,569.093 308.614,573.016 306.35,576.938 
							"/>
			<polygon fill="#90A4AE" points="315.444,576.938 313.179,573.016 315.444,569.093 319.973,569.093 322.238,573.016 
				319.973,576.938 			"/>
			<polygon fill="#90A4AE" points="329.068,576.938 326.803,573.016 329.068,569.093 333.597,569.093 335.862,573.016 
				333.597,576.938 			"/>
			<polygon fill="#90A4AE" points="342.691,576.938 340.427,573.016 342.691,569.093 347.221,569.093 349.485,573.016 
				347.221,576.938 			"/>
			<polygon fill="#90A4AE" points="356.315,576.938 354.05,573.016 356.315,569.093 360.844,569.093 363.109,573.016 
				360.844,576.938 			"/>
		</g>
	</g>
	<g>
		<g opacity="0.33">
			<polygon fill="#90A4AE" points="329.917,303.545 327.653,299.623 329.917,295.701 334.447,295.701 336.711,299.623 
				334.447,303.545 			"/>
			<polygon fill="#90A4AE" points="343.541,303.545 341.277,299.623 343.541,295.701 348.07,295.701 350.335,299.623 
				348.07,303.545 			"/>
			<polygon fill="#90A4AE" points="357.165,303.545 354.9,299.623 357.165,295.701 361.694,295.701 363.959,299.623 
				361.694,303.545 			"/>
			<polygon fill="#90A4AE" points="370.788,303.545 368.524,299.623 370.788,295.701 375.318,295.701 377.582,299.623 
				375.318,303.545 			"/>
			<polygon fill="#90A4AE" points="384.412,303.545 382.147,299.623 384.412,295.701 388.941,295.701 391.206,299.623 
				388.941,303.545 			"/>
			<polygon fill="#90A4AE" points="398.036,303.545 395.771,299.623 398.036,295.701 402.565,295.701 404.829,299.623 
				402.565,303.545 			"/>
			<polygon fill="#90A4AE" points="411.659,303.545 409.395,299.623 411.659,295.701 416.188,295.701 418.453,299.623 
				416.188,303.545 			"/>
			<polygon fill="#90A4AE" points="425.283,303.545 423.018,299.623 425.283,295.701 429.812,295.701 432.077,299.623 
				429.812,303.545 			"/>
			<polygon fill="#90A4AE" points="438.907,303.545 436.642,299.623 438.907,295.701 443.436,295.701 445.7,299.623 
				443.436,303.545 			"/>
			<polygon fill="#90A4AE" points="452.53,303.545 450.266,299.623 452.53,295.701 457.059,295.701 459.324,299.623 
				457.059,303.545 			"/>
			<polygon fill="#90A4AE" points="466.154,303.545 463.889,299.623 466.154,295.701 470.683,295.701 472.948,299.623 
				470.683,303.545 			"/>
		</g>
		<g opacity="0.33">
			<polygon fill="#90A4AE" points="469.492,303.545 467.228,299.623 469.492,295.701 474.021,295.701 476.286,299.623 
				474.021,303.545 			"/>
			<polygon fill="#90A4AE" points="483.116,303.545 480.851,299.623 483.116,295.701 487.645,295.701 489.91,299.623 
				487.645,303.545 			"/>
			<polygon fill="#90A4AE" points="496.74,303.545 494.475,299.623 496.74,295.701 501.269,295.701 503.533,299.623 
				501.269,303.545 			"/>
			<polygon fill="#90A4AE" points="510.363,303.545 508.099,299.623 510.363,295.701 514.892,295.701 517.157,299.623 
				514.892,303.545 			"/>
			<polygon fill="#90A4AE" points="523.987,303.545 521.722,299.623 523.987,295.701 528.516,295.701 530.781,299.623 
				528.516,303.545 			"/>
			<polygon fill="#90A4AE" points="537.61,303.545 535.346,299.623 537.61,295.701 542.14,295.701 544.404,299.623 542.14,303.545 
							"/>
			<polygon fill="#90A4AE" points="551.234,303.545 548.97,299.623 551.234,295.701 555.763,295.701 558.028,299.623 
				555.763,303.545 			"/>
			<polygon fill="#90A4AE" points="564.858,303.545 562.593,299.623 564.858,295.701 569.387,295.701 571.652,299.623 
				569.387,303.545 			"/>
			<polygon fill="#90A4AE" points="578.481,303.545 576.217,299.623 578.481,295.701 583.01,295.701 585.275,299.623 
				583.01,303.545 			"/>
			<polygon fill="#90A4AE" points="592.105,303.545 589.84,299.623 592.105,295.701 596.634,295.701 598.899,299.623 
				596.634,303.545 			"/>
			<polygon fill="#90A4AE" points="605.729,303.545 603.464,299.623 605.729,295.701 610.258,295.701 612.522,299.623 
				610.258,303.545 			"/>
		</g>
	</g>
	<g>
		<g opacity="0.33">
			<polygon fill="#90A4AE" points="9.047,186.452 6.783,182.53 9.047,178.607 13.576,178.607 15.841,182.53 13.576,186.452 			"/>
			<polygon fill="#90A4AE" points="22.671,186.452 20.406,182.53 22.671,178.607 27.2,178.607 29.465,182.53 27.2,186.452 			"/>
			<polygon fill="#90A4AE" points="36.294,186.452 34.03,182.53 36.294,178.607 40.824,178.607 43.088,182.53 40.824,186.452 			"/>
			<polygon fill="#90A4AE" points="49.918,186.452 47.654,182.53 49.918,178.607 54.447,178.607 56.712,182.53 54.447,186.452 			
				"/>
			<polygon fill="#90A4AE" points="63.542,186.452 61.277,182.53 63.542,178.607 68.071,178.607 70.336,182.53 68.071,186.452 			
				"/>
			<polygon fill="#90A4AE" points="77.165,186.452 74.901,182.53 77.165,178.607 81.695,178.607 83.959,182.53 81.695,186.452 			
				"/>
			<polygon fill="#90A4AE" points="90.789,186.452 88.524,182.53 90.789,178.607 95.318,178.607 97.583,182.53 95.318,186.452 			
				"/>
			<polygon fill="#90A4AE" points="104.413,186.452 102.148,182.53 104.413,178.607 108.942,178.607 111.206,182.53 
				108.942,186.452 			"/>
			<polygon fill="#90A4AE" points="118.036,186.452 115.772,182.53 118.036,178.607 122.565,178.607 124.83,182.53 122.565,186.452 
							"/>
			<polygon fill="#90A4AE" points="131.66,186.452 129.395,182.53 131.66,178.607 136.189,178.607 138.454,182.53 136.189,186.452 
							"/>
			<polygon fill="#90A4AE" points="145.284,186.452 143.019,182.53 145.284,178.607 149.813,178.607 152.077,182.53 
				149.813,186.452 			"/>
		</g>
		<g opacity="0.33">
			<polygon fill="#90A4AE" points="148.622,186.452 146.357,182.53 148.622,178.607 153.151,178.607 155.416,182.53 
				153.151,186.452 			"/>
			<polygon fill="#90A4AE" points="162.246,186.452 159.981,182.53 162.246,178.607 166.775,178.607 169.039,182.53 
				166.775,186.452 			"/>
			<polygon fill="#90A4AE" points="175.869,186.452 173.605,182.53 175.869,178.607 180.398,178.607 182.663,182.53 
				180.398,186.452 			"/>
			<polygon fill="#90A4AE" points="189.493,186.452 187.228,182.53 189.493,178.607 194.022,178.607 196.287,182.53 
				194.022,186.452 			"/>
			<polygon fill="#90A4AE" points="203.117,186.452 200.852,182.53 203.117,178.607 207.646,178.607 209.91,182.53 207.646,186.452 
							"/>
			<polygon fill="#90A4AE" points="216.74,186.452 214.476,182.53 216.74,178.607 221.269,178.607 223.534,182.53 221.269,186.452 
							"/>
			<polygon fill="#90A4AE" points="230.364,186.452 228.099,182.53 230.364,178.607 234.893,178.607 237.158,182.53 
				234.893,186.452 			"/>
			<polygon fill="#90A4AE" points="243.987,186.452 241.723,182.53 243.987,178.607 248.517,178.607 250.781,182.53 
				248.517,186.452 			"/>
			<polygon fill="#90A4AE" points="257.611,186.452 255.346,182.53 257.611,178.607 262.14,178.607 264.405,182.53 262.14,186.452 
							"/>
			<polygon fill="#90A4AE" points="271.235,186.452 268.97,182.53 271.235,178.607 275.764,178.607 278.029,182.53 275.764,186.452 
							"/>
			<polygon fill="#90A4AE" points="284.858,186.452 282.594,182.53 284.858,178.607 289.388,178.607 291.652,182.53 
				289.388,186.452 			"/>
		</g>
	</g>
	<g>
		<g opacity="0.33">
			<polygon fill="#90A4AE" points="324.539,555.986 322.274,552.064 324.539,548.141 329.068,548.141 331.332,552.064 
				329.068,555.986 			"/>
			<polygon fill="#90A4AE" points="338.162,555.986 335.898,552.064 338.162,548.141 342.691,548.141 344.956,552.064 
				342.691,555.986 			"/>
			<polygon fill="#90A4AE" points="351.786,555.986 349.521,552.064 351.786,548.141 356.315,548.141 358.58,552.064 
				356.315,555.986 			"/>
			<polygon fill="#90A4AE" points="365.409,555.986 363.145,552.064 365.409,548.141 369.939,548.141 372.203,552.064 
				369.939,555.986 			"/>
			<polygon fill="#90A4AE" points="379.033,555.986 376.768,552.064 379.033,548.141 383.562,548.141 385.827,552.064 
				383.562,555.986 			"/>
			<polygon fill="#90A4AE" points="392.657,555.986 390.392,552.064 392.657,548.141 397.186,548.141 399.45,552.064 
				397.186,555.986 			"/>
			<polygon fill="#90A4AE" points="406.28,555.986 404.016,552.064 406.28,548.141 410.81,548.141 413.074,552.064 410.81,555.986 
							"/>
			<polygon fill="#90A4AE" points="419.904,555.986 417.639,552.064 419.904,548.141 424.433,548.141 426.698,552.064 
				424.433,555.986 			"/>
			<polygon fill="#90A4AE" points="433.528,555.986 431.263,552.064 433.528,548.141 438.057,548.141 440.321,552.064 
				438.057,555.986 			"/>
			<polygon fill="#90A4AE" points="447.151,555.986 444.887,552.064 447.151,548.141 451.68,548.141 453.945,552.064 
				451.68,555.986 			"/>
			<polygon fill="#90A4AE" points="460.775,555.986 458.51,552.064 460.775,548.141 465.304,548.141 467.569,552.064 
				465.304,555.986 			"/>
		</g>
		<g opacity="0.33">
			<polygon fill="#90A4AE" points="464.113,555.986 461.849,552.064 464.113,548.141 468.643,548.141 470.907,552.064 
				468.643,555.986 			"/>
			<polygon fill="#90A4AE" points="477.737,555.986 475.472,552.064 477.737,548.141 482.266,548.141 484.531,552.064 
				482.266,555.986 			"/>
			<polygon fill="#90A4AE" points="491.361,555.986 489.096,552.064 491.361,548.141 495.89,548.141 498.154,552.064 
				495.89,555.986 			"/>
			<polygon fill="#90A4AE" points="504.984,555.986 502.72,552.064 504.984,548.141 509.513,548.141 511.778,552.064 
				509.513,555.986 			"/>
			<polygon fill="#90A4AE" points="518.608,555.986 516.343,552.064 518.608,548.141 523.137,548.141 525.402,552.064 
				523.137,555.986 			"/>
			<polygon fill="#90A4AE" points="532.232,555.986 529.967,552.064 532.232,548.141 536.761,548.141 539.025,552.064 
				536.761,555.986 			"/>
			<polygon fill="#90A4AE" points="545.855,555.986 543.591,552.064 545.855,548.141 550.384,548.141 552.649,552.064 
				550.384,555.986 			"/>
			<polygon fill="#90A4AE" points="559.479,555.986 557.214,552.064 559.479,548.141 564.008,548.141 566.273,552.064 
				564.008,555.986 			"/>
			<polygon fill="#90A4AE" points="573.102,555.986 570.838,552.064 573.102,548.141 577.632,548.141 579.896,552.064 
				577.632,555.986 			"/>
			<polygon fill="#90A4AE" points="586.726,555.986 584.461,552.064 586.726,548.141 591.255,548.141 593.52,552.064 
				591.255,555.986 			"/>
			<polygon fill="#90A4AE" points="600.35,555.986 598.085,552.064 600.35,548.141 604.879,548.141 607.143,552.064 
				604.879,555.986 			"/>
		</g>
	</g>
	<g>
		<g opacity="0.33">
			<polygon fill="#90A4AE" points="403.42,431.794 401.156,427.872 403.42,423.95 407.95,423.95 410.214,427.872 407.95,431.794 			
				"/>
			<polygon fill="#90A4AE" points="417.044,431.794 414.779,427.872 417.044,423.95 421.573,423.95 423.838,427.872 
				421.573,431.794 			"/>
			<polygon fill="#90A4AE" points="430.668,431.794 428.403,427.872 430.668,423.95 435.197,423.95 437.461,427.872 
				435.197,431.794 			"/>
			<polygon fill="#90A4AE" points="444.291,431.794 442.027,427.872 444.291,423.95 448.82,423.95 451.085,427.872 448.82,431.794 
							"/>
			<polygon fill="#90A4AE" points="457.915,431.794 455.65,427.872 457.915,423.95 462.444,423.95 464.709,427.872 462.444,431.794 
							"/>
			<polygon fill="#90A4AE" points="471.539,431.794 469.274,427.872 471.539,423.95 476.068,423.95 478.332,427.872 
				476.068,431.794 			"/>
			<polygon fill="#90A4AE" points="485.162,431.794 482.898,427.872 485.162,423.95 489.691,423.95 491.956,427.872 
				489.691,431.794 			"/>
			<polygon fill="#90A4AE" points="498.786,431.794 496.521,427.872 498.786,423.95 503.315,423.95 505.58,427.872 503.315,431.794 
							"/>
			<polygon fill="#90A4AE" points="512.409,431.794 510.145,427.872 512.409,423.95 516.939,423.95 519.203,427.872 
				516.939,431.794 			"/>
			<polygon fill="#90A4AE" points="526.033,431.794 523.768,427.872 526.033,423.95 530.562,423.95 532.827,427.872 
				530.562,431.794 			"/>
			<polygon fill="#90A4AE" points="539.657,431.794 537.392,427.872 539.657,423.95 544.186,423.95 546.451,427.872 
				544.186,431.794 			"/>
		</g>
		<g opacity="0.33">
			<polygon fill="#90A4AE" points="542.995,431.794 540.731,427.872 542.995,423.95 547.524,423.95 549.789,427.872 
				547.524,431.794 			"/>
			<polygon fill="#90A4AE" points="556.619,431.794 554.354,427.872 556.619,423.95 561.148,423.95 563.413,427.872 
				561.148,431.794 			"/>
			<polygon fill="#90A4AE" points="570.242,431.794 567.978,427.872 570.242,423.95 574.772,423.95 577.036,427.872 
				574.772,431.794 			"/>
			<polygon fill="#90A4AE" points="583.866,431.794 581.601,427.872 583.866,423.95 588.395,423.95 590.66,427.872 588.395,431.794 
							"/>
			<polygon fill="#90A4AE" points="597.49,431.794 595.225,427.872 597.49,423.95 602.019,423.95 604.284,427.872 602.019,431.794 
							"/>
			<polygon fill="#90A4AE" points="611.113,431.794 608.849,427.872 611.113,423.95 615.643,423.95 617.907,427.872 
				615.643,431.794 			"/>
			<polygon fill="#90A4AE" points="624.737,431.794 622.472,427.872 624.737,423.95 629.266,423.95 631.531,427.872 
				629.266,431.794 			"/>
			<polygon fill="#90A4AE" points="638.361,431.794 636.096,427.872 638.361,423.95 642.89,423.95 645.154,427.872 642.89,431.794 
							"/>
			<polygon fill="#90A4AE" points="651.984,431.794 649.72,427.872 651.984,423.95 656.513,423.95 658.778,427.872 656.513,431.794 
							"/>
			<polygon fill="#90A4AE" points="665.608,431.794 663.343,427.872 665.608,423.95 670.137,423.95 672.402,427.872 
				670.137,431.794 			"/>
			<polygon fill="#90A4AE" points="679.232,431.794 676.967,427.872 679.232,423.95 683.761,423.95 686.025,427.872 
				683.761,431.794 			"/>
		</g>
	</g>
	<g>
		<g opacity="0.33">
			<polygon fill="#90A4AE" points="527.702,230.489 525.438,226.567 527.702,222.644 532.232,222.644 534.496,226.567 
				532.232,230.489 			"/>
			<polygon fill="#90A4AE" points="541.326,230.489 539.061,226.567 541.326,222.644 545.855,222.644 548.12,226.567 
				545.855,230.489 			"/>
			<polygon fill="#90A4AE" points="554.95,230.489 552.685,226.567 554.95,222.644 559.479,222.644 561.743,226.567 
				559.479,230.489 			"/>
			<polygon fill="#90A4AE" points="568.573,230.489 566.309,226.567 568.573,222.644 573.102,222.644 575.367,226.567 
				573.102,230.489 			"/>
			<polygon fill="#90A4AE" points="582.197,230.489 579.932,226.567 582.197,222.644 586.726,222.644 588.991,226.567 
				586.726,230.489 			"/>
			<polygon fill="#90A4AE" points="595.82,230.489 593.556,226.567 595.82,222.644 600.35,222.644 602.614,226.567 600.35,230.489 
							"/>
			<polygon fill="#90A4AE" points="609.444,230.489 607.18,226.567 609.444,222.644 613.973,222.644 616.238,226.567 
				613.973,230.489 			"/>
			<polygon fill="#90A4AE" points="623.068,230.489 620.803,226.567 623.068,222.644 627.597,222.644 629.862,226.567 
				627.597,230.489 			"/>
			<polygon fill="#90A4AE" points="636.691,230.489 634.427,226.567 636.691,222.644 641.221,222.644 643.485,226.567 
				641.221,230.489 			"/>
			<polygon fill="#90A4AE" points="650.315,230.489 648.05,226.567 650.315,222.644 654.844,222.644 657.109,226.567 
				654.844,230.489 			"/>
			<polygon fill="#90A4AE" points="663.939,230.489 661.674,226.567 663.939,222.644 668.468,222.644 670.732,226.567 
				668.468,230.489 			"/>
		</g>
		<g opacity="0.33">
			<polygon fill="#90A4AE" points="667.277,230.489 665.013,226.567 667.277,222.644 671.806,222.644 674.071,226.567 
				671.806,230.489 			"/>
			<polygon fill="#90A4AE" points="680.901,230.489 678.636,226.567 680.901,222.644 685.43,222.644 687.695,226.567 
				685.43,230.489 			"/>
			<polygon fill="#90A4AE" points="694.524,230.489 692.26,226.567 694.524,222.644 699.054,222.644 701.318,226.567 
				699.054,230.489 			"/>
			<polygon fill="#90A4AE" points="708.148,230.489 705.883,226.567 708.148,222.644 712.677,222.644 714.942,226.567 
				712.677,230.489 			"/>
			<polygon fill="#90A4AE" points="721.772,230.489 719.507,226.567 721.772,222.644 726.301,222.644 728.565,226.567 
				726.301,230.489 			"/>
			<polygon fill="#90A4AE" points="735.395,230.489 733.131,226.567 735.395,222.644 739.925,222.644 742.189,226.567 
				739.925,230.489 			"/>
			<polygon fill="#90A4AE" points="749.019,230.489 746.754,226.567 749.019,222.644 753.548,222.644 755.813,226.567 
				753.548,230.489 			"/>
			<polygon fill="#90A4AE" points="762.643,230.489 760.378,226.567 762.643,222.644 767.172,222.644 769.436,226.567 
				767.172,230.489 			"/>
			<polygon fill="#90A4AE" points="776.266,230.489 774.002,226.567 776.266,222.644 780.795,222.644 783.06,226.567 
				780.795,230.489 			"/>
			<polygon fill="#90A4AE" points="789.89,230.489 787.625,226.567 789.89,222.644 794.419,222.644 796.684,226.567 
				794.419,230.489 			"/>
			<polygon fill="#90A4AE" points="803.513,230.489 801.249,226.567 803.513,222.644 808.043,222.644 810.307,226.567 
				808.043,230.489 			"/>
		</g>
	</g>
	<polygon fill="#90A4AE" points="424.884,158.899 418.267,147.439 424.884,135.979 438.117,135.979 444.734,147.439 
		438.117,158.899 	"/>
	<polygon fill="#90A4AE" points="424.884,158.899 418.267,147.439 424.884,135.979 438.117,135.979 444.734,147.439 
		438.117,158.899 	"/>
	<polygon fill="#90A4AE" points="424.884,158.899 418.267,147.439 424.884,135.979 438.117,135.979 444.734,147.439 
		438.117,158.899 	"/>
	<g>
		<polygon fill="#90A4AE" points="423.725,321.706 422.247,319.982 460.353,287.302 616.262,287.302 616.262,289.573 
			461.193,289.573 		"/>
	</g>
	<g>
		<polygon fill="#90A4AE" points="438.73,194.627 437.125,193.022 486.843,143.304 573.029,143.304 573.029,145.574 
			487.784,145.574 		"/>
	</g>
	<g>
		<polygon fill="#90A4AE" points="659.312,212.923 506.912,212.923 488.781,194.793 490.386,193.188 507.852,210.653 
			659.312,210.653 		"/>
	</g>
	<g>
		<polygon fill="#90A4AE" points="485.845,375.14 484.24,373.535 514.374,343.401 669.009,343.401 669.009,345.671 515.315,345.671 
					"/>
	</g>
	<g>
		<polygon fill="#90A4AE" points="669.009,407.545 487.694,407.545 456.993,376.843 458.598,375.238 488.635,405.275 
			669.009,405.275 		"/>
	</g>
</g>
<g opacity="0.1">
	<path fill="#90A4AE" d="M1294.807,207.331l61.793,107.028h123.586l61.793-107.028l-61.793-107.028H1356.6L1294.807,207.331z
		 M1328.824,207.331l44.785-77.569h89.57l44.785,77.569l-44.785,77.57h-89.57L1328.824,207.331z"/>
	<path fill="#90A4AE" d="M1351.241,207.331l33.576,58.155h67.152l33.576-58.155l-33.576-58.155h-67.152L1351.241,207.331z
		 M1369.724,207.331l24.334-42.148h48.669l24.334,42.148l-24.334,42.148h-48.669L1369.724,207.331z"/>
	<path fill="#90A4AE" d="M1393.89,207.331l12.252,21.221h24.503l12.252-21.221l-12.252-21.22h-24.503L1393.89,207.331z
		 M1400.634,207.331l8.879-15.38h17.759l8.88,15.38l-8.88,15.38h-17.759L1400.634,207.331z"/>
	<g>
		<path fill="#90A4AE" d="M1273.119,207.331l72.637-125.811h145.274l72.637,125.811l-72.637,125.811h-145.274L1273.119,207.331z
			 M1559.079,207.331l-70.343-121.838H1348.05l-70.343,121.838l70.343,121.837h140.686L1559.079,207.331z"/>
	</g>
	<g>
		<polygon fill="#90A4AE" points="1342.754,88.789 1345.564,85.979 1338.075,78.491 1064.368,78.491 1064.368,82.464 
			1336.43,82.464 		"/>
	</g>
	<polygon fill="#90A4AE" points="1070.984,91.938 1077.601,80.477 1070.984,69.017 1057.751,69.017 1051.134,80.477 
		1057.751,91.938 	"/>
	<polygon fill="#90A4AE" points="1164.41,135.974 1171.027,124.514 1164.41,113.054 1151.177,113.054 1144.56,124.514 
		1151.177,135.974 	"/>
	<polygon fill="#90A4AE" points="1196.996,45.387 1203.613,33.926 1196.996,22.466 1183.763,22.466 1177.147,33.926 
		1183.763,45.387 	"/>
	<polygon fill="#90A4AE" points="1196.996,45.387 1203.613,33.926 1196.996,22.466 1183.763,22.466 1177.147,33.926 
		1183.763,45.387 	"/>
	<polygon fill="#90A4AE" points="929.166,218.791 935.783,207.331 929.166,195.87 915.933,195.87 909.316,207.331 915.933,218.791 	
		"/>
	<polygon fill="#90A4AE" points="1052.63,273.282 1059.247,261.822 1052.63,250.361 1039.397,250.361 1032.781,261.822 
		1039.397,273.282 	"/>
	<polygon fill="#90A4AE" points="1057.751,165.191 1064.368,153.731 1057.751,142.27 1044.518,142.27 1037.901,153.731 
		1044.518,165.191 	"/>
	<polygon fill="#90A4AE" points="981.106,363.328 987.723,351.868 981.106,340.407 967.873,340.407 961.256,351.868 
		967.873,363.328 	"/>
	<polygon fill="#90A4AE" points="1145.176,395.599 1151.793,384.139 1145.176,372.679 1131.943,372.679 1125.326,384.139 
		1131.943,395.599 	"/>
	<g>
		<polygon fill="#90A4AE" points="1304.155,156.519 1306.965,153.71 1276.396,123.141 1157.794,123.141 1157.794,127.115 
			1274.75,127.115 		"/>
	</g>
	<g>
		<rect x="922.55" y="205.344" fill="#90A4AE" width="352.863" height="3.974"/>
	</g>
	<g>
		
			<rect x="1211.29" y="100.517" transform="matrix(0.7071 -0.7071 0.7071 0.7071 291.4177 908.5516)" fill="#90A4AE" width="62.276" height="3.974"/>
	</g>
	<g>
		<polygon fill="#90A4AE" points="1294.423,81.882 1297.233,79.073 1250.1,31.939 1190.38,31.939 1190.38,35.913 1248.454,35.913 		
			"/>
	</g>
	<g>
		<polygon fill="#90A4AE" points="1046.014,263.808 1172.717,263.808 1227.79,208.736 1224.98,205.926 1171.071,259.835 
			1046.014,259.835 		"/>
	</g>
	<g>
		<polygon fill="#90A4AE" points="974.49,353.854 1206.056,353.854 1206.638,353.272 1304.035,255.876 1301.225,253.066 
			1204.41,349.881 974.49,349.881 		"/>
	</g>
	<g>
		
			<rect x="1209.697" y="240.113" transform="matrix(0.7072 -0.707 0.707 0.7072 154.2459 939.7131)" fill="#90A4AE" width="3.974" height="87.03"/>
	</g>
	<g>
		<polygon fill="#90A4AE" points="1286.26,187.515 1289.07,184.706 1256.108,151.744 1051.134,151.744 1051.134,155.717 
			1254.462,155.717 		"/>
	</g>
	<g>
		<polygon fill="#90A4AE" points="1136.199,386.126 1268.25,386.126 1338.611,315.764 1335.801,312.955 1266.604,382.152 
			1136.199,382.152 		"/>
	</g>
	<g>
		<g opacity="0.33">
			<polygon fill="#90A4AE" points="1421.624,15.008 1423.889,11.085 1421.624,7.163 1417.095,7.163 1414.83,11.085 1417.095,15.008 
							"/>
			<polygon fill="#90A4AE" points="1408,15.008 1410.265,11.085 1408,7.163 1403.471,7.163 1401.207,11.085 1403.471,15.008 			"/>
			<polygon fill="#90A4AE" points="1394.377,15.008 1396.641,11.085 1394.377,7.163 1389.847,7.163 1387.583,11.085 
				1389.847,15.008 			"/>
			<polygon fill="#90A4AE" points="1380.753,15.008 1383.018,11.085 1380.753,7.163 1376.224,7.163 1373.959,11.085 
				1376.224,15.008 			"/>
			<polygon fill="#90A4AE" points="1367.129,15.008 1369.394,11.085 1367.129,7.163 1362.6,7.163 1360.336,11.085 1362.6,15.008 			
				"/>
			<polygon fill="#90A4AE" points="1353.506,15.008 1355.77,11.085 1353.506,7.163 1348.977,7.163 1346.712,11.085 1348.977,15.008 
							"/>
			<polygon fill="#90A4AE" points="1339.882,15.008 1342.147,11.085 1339.882,7.163 1335.353,7.163 1333.088,11.085 
				1335.353,15.008 			"/>
			<polygon fill="#90A4AE" points="1326.259,15.008 1328.523,11.085 1326.259,7.163 1321.729,7.163 1319.465,11.085 
				1321.729,15.008 			"/>
			<polygon fill="#90A4AE" points="1312.635,15.008 1314.899,11.085 1312.635,7.163 1308.106,7.163 1305.841,11.085 
				1308.106,15.008 			"/>
			<polygon fill="#90A4AE" points="1299.011,15.008 1301.276,11.085 1299.011,7.163 1294.482,7.163 1292.217,11.085 
				1294.482,15.008 			"/>
			<polygon fill="#90A4AE" points="1285.388,15.008 1287.652,11.085 1285.388,7.163 1280.858,7.163 1278.594,11.085 
				1280.858,15.008 			"/>
		</g>
		<g opacity="0.33">
			<polygon fill="#90A4AE" points="1282.049,15.008 1284.314,11.085 1282.049,7.163 1277.52,7.163 1275.255,11.085 1277.52,15.008 
							"/>
			<polygon fill="#90A4AE" points="1268.426,15.008 1270.69,11.085 1268.426,7.163 1263.896,7.163 1261.632,11.085 1263.896,15.008 
							"/>
			<polygon fill="#90A4AE" points="1254.802,15.008 1257.066,11.085 1254.802,7.163 1250.273,7.163 1248.008,11.085 
				1250.273,15.008 			"/>
			<polygon fill="#90A4AE" points="1241.178,15.008 1243.443,11.085 1241.178,7.163 1236.649,7.163 1234.384,11.085 
				1236.649,15.008 			"/>
			<polygon fill="#90A4AE" points="1227.555,15.008 1229.819,11.085 1227.555,7.163 1223.025,7.163 1220.761,11.085 
				1223.025,15.008 			"/>
			<polygon fill="#90A4AE" points="1213.931,15.008 1216.196,11.085 1213.931,7.163 1209.402,7.163 1207.137,11.085 
				1209.402,15.008 			"/>
			<polygon fill="#90A4AE" points="1200.307,15.008 1202.572,11.085 1200.307,7.163 1195.778,7.163 1193.514,11.085 
				1195.778,15.008 			"/>
			<polygon fill="#90A4AE" points="1186.684,15.008 1188.948,11.085 1186.684,7.163 1182.155,7.163 1179.89,11.085 1182.155,15.008 
							"/>
			<polygon fill="#90A4AE" points="1173.06,15.008 1175.325,11.085 1173.06,7.163 1168.531,7.163 1166.266,11.085 1168.531,15.008 
							"/>
			<polygon fill="#90A4AE" points="1159.436,15.008 1161.701,11.085 1159.436,7.163 1154.907,7.163 1152.643,11.085 
				1154.907,15.008 			"/>
			<polygon fill="#90A4AE" points="1145.813,15.008 1148.077,11.085 1145.813,7.163 1141.284,7.163 1139.019,11.085 
				1141.284,15.008 			"/>
		</g>
	</g>
	<g>
		<g opacity="0.33">
			<polygon fill="#90A4AE" points="1421.624,415.742 1423.889,411.82 1421.624,407.898 1417.095,407.898 1414.83,411.82 
				1417.095,415.742 			"/>
			<polygon fill="#90A4AE" points="1408,415.742 1410.265,411.82 1408,407.898 1403.471,407.898 1401.207,411.82 1403.471,415.742 
							"/>
			<polygon fill="#90A4AE" points="1394.377,415.742 1396.641,411.82 1394.377,407.898 1389.847,407.898 1387.583,411.82 
				1389.847,415.742 			"/>
			<polygon fill="#90A4AE" points="1380.753,415.742 1383.018,411.82 1380.753,407.898 1376.224,407.898 1373.959,411.82 
				1376.224,415.742 			"/>
			<polygon fill="#90A4AE" points="1367.129,415.742 1369.394,411.82 1367.129,407.898 1362.6,407.898 1360.336,411.82 
				1362.6,415.742 			"/>
			<polygon fill="#90A4AE" points="1353.506,415.742 1355.77,411.82 1353.506,407.898 1348.977,407.898 1346.712,411.82 
				1348.977,415.742 			"/>
			<polygon fill="#90A4AE" points="1339.882,415.742 1342.147,411.82 1339.882,407.898 1335.353,407.898 1333.088,411.82 
				1335.353,415.742 			"/>
			<polygon fill="#90A4AE" points="1326.259,415.742 1328.523,411.82 1326.259,407.898 1321.729,407.898 1319.465,411.82 
				1321.729,415.742 			"/>
			<polygon fill="#90A4AE" points="1312.635,415.742 1314.899,411.82 1312.635,407.898 1308.106,407.898 1305.841,411.82 
				1308.106,415.742 			"/>
			<polygon fill="#90A4AE" points="1299.011,415.742 1301.276,411.82 1299.011,407.898 1294.482,407.898 1292.217,411.82 
				1294.482,415.742 			"/>
			<polygon fill="#90A4AE" points="1285.388,415.742 1287.652,411.82 1285.388,407.898 1280.858,407.898 1278.594,411.82 
				1280.858,415.742 			"/>
		</g>
		<g opacity="0.33">
			<polygon fill="#90A4AE" points="1282.049,415.742 1284.314,411.82 1282.049,407.898 1277.52,407.898 1275.255,411.82 
				1277.52,415.742 			"/>
			<polygon fill="#90A4AE" points="1268.426,415.742 1270.69,411.82 1268.426,407.898 1263.896,407.898 1261.632,411.82 
				1263.896,415.742 			"/>
			<polygon fill="#90A4AE" points="1254.802,415.742 1257.066,411.82 1254.802,407.898 1250.273,407.898 1248.008,411.82 
				1250.273,415.742 			"/>
			<polygon fill="#90A4AE" points="1241.178,415.742 1243.443,411.82 1241.178,407.898 1236.649,407.898 1234.384,411.82 
				1236.649,415.742 			"/>
			<polygon fill="#90A4AE" points="1227.555,415.742 1229.819,411.82 1227.555,407.898 1223.025,407.898 1220.761,411.82 
				1223.025,415.742 			"/>
			<polygon fill="#90A4AE" points="1213.931,415.742 1216.196,411.82 1213.931,407.898 1209.402,407.898 1207.137,411.82 
				1209.402,415.742 			"/>
			<polygon fill="#90A4AE" points="1200.307,415.742 1202.572,411.82 1200.307,407.898 1195.778,407.898 1193.514,411.82 
				1195.778,415.742 			"/>
			<polygon fill="#90A4AE" points="1186.684,415.742 1188.948,411.82 1186.684,407.898 1182.155,407.898 1179.89,411.82 
				1182.155,415.742 			"/>
			<polygon fill="#90A4AE" points="1173.06,415.742 1175.325,411.82 1173.06,407.898 1168.531,407.898 1166.266,411.82 
				1168.531,415.742 			"/>
			<polygon fill="#90A4AE" points="1159.436,415.742 1161.701,411.82 1159.436,407.898 1154.907,407.898 1152.643,411.82 
				1154.907,415.742 			"/>
			<polygon fill="#90A4AE" points="1145.813,415.742 1148.077,411.82 1145.813,407.898 1141.284,407.898 1139.019,411.82 
				1141.284,415.742 			"/>
		</g>
	</g>
	<g>
		<g opacity="0.33">
			<polygon fill="#90A4AE" points="1541.377,463.425 1543.641,459.503 1541.377,455.58 1536.848,455.58 1534.583,459.503 
				1536.848,463.425 			"/>
			<polygon fill="#90A4AE" points="1527.753,463.425 1530.018,459.503 1527.753,455.58 1523.224,455.58 1520.959,459.503 
				1523.224,463.425 			"/>
			<polygon fill="#90A4AE" points="1514.129,463.425 1516.394,459.503 1514.129,455.58 1509.6,455.58 1507.336,459.503 
				1509.6,463.425 			"/>
			<polygon fill="#90A4AE" points="1500.506,463.425 1502.771,459.503 1500.506,455.58 1495.977,455.58 1493.712,459.503 
				1495.977,463.425 			"/>
			<polygon fill="#90A4AE" points="1486.882,463.425 1489.147,459.503 1486.882,455.58 1482.353,455.58 1480.088,459.503 
				1482.353,463.425 			"/>
			<polygon fill="#90A4AE" points="1473.259,463.425 1475.523,459.503 1473.259,455.58 1468.729,455.58 1466.465,459.503 
				1468.729,463.425 			"/>
			<polygon fill="#90A4AE" points="1459.635,463.425 1461.9,459.503 1459.635,455.58 1455.106,455.58 1452.841,459.503 
				1455.106,463.425 			"/>
			<polygon fill="#90A4AE" points="1446.011,463.425 1448.276,459.503 1446.011,455.58 1441.482,455.58 1439.217,459.503 
				1441.482,463.425 			"/>
			<polygon fill="#90A4AE" points="1432.388,463.425 1434.652,459.503 1432.388,455.58 1427.858,455.58 1425.594,459.503 
				1427.858,463.425 			"/>
			<polygon fill="#90A4AE" points="1418.764,463.425 1421.029,459.503 1418.764,455.58 1414.235,455.58 1411.97,459.503 
				1414.235,463.425 			"/>
			<polygon fill="#90A4AE" points="1405.14,463.425 1407.405,459.503 1405.14,455.58 1400.611,455.58 1398.347,459.503 
				1400.611,463.425 			"/>
		</g>
		<g opacity="0.33">
			<polygon fill="#90A4AE" points="1401.802,463.425 1404.066,459.503 1401.802,455.58 1397.273,455.58 1395.008,459.503 
				1397.273,463.425 			"/>
			<polygon fill="#90A4AE" points="1388.178,463.425 1390.443,459.503 1388.178,455.58 1383.649,455.58 1381.384,459.503 
				1383.649,463.425 			"/>
			<polygon fill="#90A4AE" points="1374.555,463.425 1376.819,459.503 1374.555,455.58 1370.025,455.58 1367.761,459.503 
				1370.025,463.425 			"/>
			<polygon fill="#90A4AE" points="1360.931,463.425 1363.196,459.503 1360.931,455.58 1356.402,455.58 1354.137,459.503 
				1356.402,463.425 			"/>
			<polygon fill="#90A4AE" points="1347.307,463.425 1349.572,459.503 1347.307,455.58 1342.778,455.58 1340.514,459.503 
				1342.778,463.425 			"/>
			<polygon fill="#90A4AE" points="1333.684,463.425 1335.948,459.503 1333.684,455.58 1329.155,455.58 1326.89,459.503 
				1329.155,463.425 			"/>
			<polygon fill="#90A4AE" points="1320.06,463.425 1322.325,459.503 1320.06,455.58 1315.531,455.58 1313.266,459.503 
				1315.531,463.425 			"/>
			<polygon fill="#90A4AE" points="1306.436,463.425 1308.701,459.503 1306.436,455.58 1301.907,455.58 1299.643,459.503 
				1301.907,463.425 			"/>
			<polygon fill="#90A4AE" points="1292.813,463.425 1295.077,459.503 1292.813,455.58 1288.284,455.58 1286.019,459.503 
				1288.284,463.425 			"/>
			<polygon fill="#90A4AE" points="1279.189,463.425 1281.454,459.503 1279.189,455.58 1274.66,455.58 1272.395,459.503 
				1274.66,463.425 			"/>
			<polygon fill="#90A4AE" points="1265.566,463.425 1267.83,459.503 1265.566,455.58 1261.036,455.58 1258.772,459.503 
				1261.036,463.425 			"/>
		</g>
	</g>
	<g>
		<g opacity="0.33">
			<polygon fill="#90A4AE" points="1291.963,190.033 1294.228,186.11 1291.963,182.188 1287.434,182.188 1285.169,186.11 
				1287.434,190.033 			"/>
			<polygon fill="#90A4AE" points="1278.339,190.033 1280.604,186.11 1278.339,182.188 1273.81,182.188 1271.546,186.11 
				1273.81,190.033 			"/>
			<polygon fill="#90A4AE" points="1264.716,190.033 1266.98,186.11 1264.716,182.188 1260.187,182.188 1257.922,186.11 
				1260.187,190.033 			"/>
			<polygon fill="#90A4AE" points="1251.092,190.033 1253.357,186.11 1251.092,182.188 1246.563,182.188 1244.298,186.11 
				1246.563,190.033 			"/>
			<polygon fill="#90A4AE" points="1237.469,190.033 1239.733,186.11 1237.469,182.188 1232.939,182.188 1230.675,186.11 
				1232.939,190.033 			"/>
			<polygon fill="#90A4AE" points="1223.845,190.033 1226.109,186.11 1223.845,182.188 1219.316,182.188 1217.051,186.11 
				1219.316,190.033 			"/>
			<polygon fill="#90A4AE" points="1210.221,190.033 1212.486,186.11 1210.221,182.188 1205.692,182.188 1203.427,186.11 
				1205.692,190.033 			"/>
			<polygon fill="#90A4AE" points="1196.598,190.033 1198.862,186.11 1196.598,182.188 1192.068,182.188 1189.804,186.11 
				1192.068,190.033 			"/>
			<polygon fill="#90A4AE" points="1182.974,190.033 1185.239,186.11 1182.974,182.188 1178.445,182.188 1176.18,186.11 
				1178.445,190.033 			"/>
			<polygon fill="#90A4AE" points="1169.35,190.033 1171.615,186.11 1169.35,182.188 1164.821,182.188 1162.557,186.11 
				1164.821,190.033 			"/>
			<polygon fill="#90A4AE" points="1155.727,190.033 1157.991,186.11 1155.727,182.188 1151.198,182.188 1148.933,186.11 
				1151.198,190.033 			"/>
		</g>
		<g opacity="0.33">
			<polygon fill="#90A4AE" points="1152.388,190.033 1154.653,186.11 1152.388,182.188 1147.859,182.188 1145.594,186.11 
				1147.859,190.033 			"/>
			<polygon fill="#90A4AE" points="1138.765,190.033 1141.029,186.11 1138.765,182.188 1134.235,182.188 1131.971,186.11 
				1134.235,190.033 			"/>
			<polygon fill="#90A4AE" points="1125.141,190.033 1127.406,186.11 1125.141,182.188 1120.612,182.188 1118.347,186.11 
				1120.612,190.033 			"/>
			<polygon fill="#90A4AE" points="1111.517,190.033 1113.782,186.11 1111.517,182.188 1106.988,182.188 1104.724,186.11 
				1106.988,190.033 			"/>
			<polygon fill="#90A4AE" points="1097.894,190.033 1100.158,186.11 1097.894,182.188 1093.365,182.188 1091.1,186.11 
				1093.365,190.033 			"/>
			<polygon fill="#90A4AE" points="1084.27,190.033 1086.535,186.11 1084.27,182.188 1079.741,182.188 1077.476,186.11 
				1079.741,190.033 			"/>
			<polygon fill="#90A4AE" points="1070.646,190.033 1072.911,186.11 1070.646,182.188 1066.117,182.188 1063.853,186.11 
				1066.117,190.033 			"/>
			<polygon fill="#90A4AE" points="1057.023,190.033 1059.287,186.11 1057.023,182.188 1052.494,182.188 1050.229,186.11 
				1052.494,190.033 			"/>
			<polygon fill="#90A4AE" points="1043.399,190.033 1045.664,186.11 1043.399,182.188 1038.87,182.188 1036.605,186.11 
				1038.87,190.033 			"/>
			<polygon fill="#90A4AE" points="1029.776,190.033 1032.04,186.11 1029.776,182.188 1025.246,182.188 1022.982,186.11 
				1025.246,190.033 			"/>
			<polygon fill="#90A4AE" points="1016.152,190.033 1018.416,186.11 1016.152,182.188 1011.623,182.188 1009.358,186.11 
				1011.623,190.033 			"/>
		</g>
	</g>
	<g>
		<g opacity="0.33">
			<polygon fill="#90A4AE" points="1612.833,72.939 1615.098,69.017 1612.833,65.095 1608.304,65.095 1606.04,69.017 
				1608.304,72.939 			"/>
			<polygon fill="#90A4AE" points="1599.21,72.939 1601.474,69.017 1599.21,65.095 1594.68,65.095 1592.416,69.017 1594.68,72.939 
							"/>
			<polygon fill="#90A4AE" points="1585.586,72.939 1587.851,69.017 1585.586,65.095 1581.057,65.095 1578.792,69.017 
				1581.057,72.939 			"/>
			<polygon fill="#90A4AE" points="1571.962,72.939 1574.227,69.017 1571.962,65.095 1567.433,65.095 1565.169,69.017 
				1567.433,72.939 			"/>
			<polygon fill="#90A4AE" points="1558.339,72.939 1560.603,69.017 1558.339,65.095 1553.81,65.095 1551.545,69.017 
				1553.81,72.939 			"/>
			<polygon fill="#90A4AE" points="1544.715,72.939 1546.98,69.017 1544.715,65.095 1540.186,65.095 1537.921,69.017 
				1540.186,72.939 			"/>
			<polygon fill="#90A4AE" points="1531.092,72.939 1533.356,69.017 1531.092,65.095 1526.562,65.095 1524.298,69.017 
				1526.562,72.939 			"/>
			<polygon fill="#90A4AE" points="1517.468,72.939 1519.732,69.017 1517.468,65.095 1512.939,65.095 1510.674,69.017 
				1512.939,72.939 			"/>
			<polygon fill="#90A4AE" points="1503.844,72.939 1506.109,69.017 1503.844,65.095 1499.315,65.095 1497.05,69.017 
				1499.315,72.939 			"/>
			<polygon fill="#90A4AE" points="1490.221,72.939 1492.485,69.017 1490.221,65.095 1485.691,65.095 1483.427,69.017 
				1485.691,72.939 			"/>
			<polygon fill="#90A4AE" points="1476.597,72.939 1478.862,69.017 1476.597,65.095 1472.068,65.095 1469.803,69.017 
				1472.068,72.939 			"/>
		</g>
		<g opacity="0.33">
			<polygon fill="#90A4AE" points="1473.259,72.939 1475.523,69.017 1473.259,65.095 1468.729,65.095 1466.465,69.017 
				1468.729,72.939 			"/>
			<polygon fill="#90A4AE" points="1459.635,72.939 1461.899,69.017 1459.635,65.095 1455.106,65.095 1452.841,69.017 
				1455.106,72.939 			"/>
			<polygon fill="#90A4AE" points="1446.011,72.939 1448.276,69.017 1446.011,65.095 1441.482,65.095 1439.217,69.017 
				1441.482,72.939 			"/>
			<polygon fill="#90A4AE" points="1432.388,72.939 1434.652,69.017 1432.388,65.095 1427.858,65.095 1425.594,69.017 
				1427.858,72.939 			"/>
			<polygon fill="#90A4AE" points="1418.764,72.939 1421.029,69.017 1418.764,65.095 1414.235,65.095 1411.97,69.017 
				1414.235,72.939 			"/>
			<polygon fill="#90A4AE" points="1405.14,72.939 1407.405,69.017 1405.14,65.095 1400.611,65.095 1398.347,69.017 
				1400.611,72.939 			"/>
			<polygon fill="#90A4AE" points="1391.517,72.939 1393.781,69.017 1391.517,65.095 1386.987,65.095 1384.723,69.017 
				1386.987,72.939 			"/>
			<polygon fill="#90A4AE" points="1377.893,72.939 1380.158,69.017 1377.893,65.095 1373.364,65.095 1371.099,69.017 
				1373.364,72.939 			"/>
			<polygon fill="#90A4AE" points="1364.269,72.939 1366.534,69.017 1364.269,65.095 1359.74,65.095 1357.476,69.017 
				1359.74,72.939 			"/>
			<polygon fill="#90A4AE" points="1350.646,72.939 1352.91,69.017 1350.646,65.095 1346.117,65.095 1343.852,69.017 
				1346.117,72.939 			"/>
			<polygon fill="#90A4AE" points="1337.022,72.939 1339.287,69.017 1337.022,65.095 1332.493,65.095 1330.228,69.017 
				1332.493,72.939 			"/>
		</g>
	</g>
	<g>
		<g opacity="0.33">
			<polygon fill="#90A4AE" points="1297.342,442.473 1299.607,438.551 1297.342,434.628 1292.813,434.628 1290.548,438.551 
				1292.813,442.473 			"/>
			<polygon fill="#90A4AE" points="1283.718,442.473 1285.983,438.551 1283.718,434.628 1279.189,434.628 1276.925,438.551 
				1279.189,442.473 			"/>
			<polygon fill="#90A4AE" points="1270.095,442.473 1272.359,438.551 1270.095,434.628 1265.566,434.628 1263.301,438.551 
				1265.566,442.473 			"/>
			<polygon fill="#90A4AE" points="1256.471,442.473 1258.736,438.551 1256.471,434.628 1251.942,434.628 1249.677,438.551 
				1251.942,442.473 			"/>
			<polygon fill="#90A4AE" points="1242.847,442.473 1245.112,438.551 1242.847,434.628 1238.318,434.628 1236.054,438.551 
				1238.318,442.473 			"/>
			<polygon fill="#90A4AE" points="1229.224,442.473 1231.488,438.551 1229.224,434.628 1224.695,434.628 1222.43,438.551 
				1224.695,442.473 			"/>
			<polygon fill="#90A4AE" points="1215.6,442.473 1217.865,438.551 1215.6,434.628 1211.071,434.628 1208.806,438.551 
				1211.071,442.473 			"/>
			<polygon fill="#90A4AE" points="1201.977,442.473 1204.241,438.551 1201.977,434.628 1197.447,434.628 1195.183,438.551 
				1197.447,442.473 			"/>
			<polygon fill="#90A4AE" points="1188.353,442.473 1190.618,438.551 1188.353,434.628 1183.824,434.628 1181.559,438.551 
				1183.824,442.473 			"/>
			<polygon fill="#90A4AE" points="1174.729,442.473 1176.994,438.551 1174.729,434.628 1170.2,434.628 1167.935,438.551 
				1170.2,442.473 			"/>
			<polygon fill="#90A4AE" points="1161.106,442.473 1163.37,438.551 1161.106,434.628 1156.576,434.628 1154.312,438.551 
				1156.576,442.473 			"/>
		</g>
		<g opacity="0.33">
			<polygon fill="#90A4AE" points="1157.767,442.473 1160.032,438.551 1157.767,434.628 1153.238,434.628 1150.973,438.551 
				1153.238,442.473 			"/>
			<polygon fill="#90A4AE" points="1144.144,442.473 1146.408,438.551 1144.144,434.628 1139.614,434.628 1137.35,438.551 
				1139.614,442.473 			"/>
			<polygon fill="#90A4AE" points="1130.52,442.473 1132.785,438.551 1130.52,434.628 1125.991,434.628 1123.726,438.551 
				1125.991,442.473 			"/>
			<polygon fill="#90A4AE" points="1116.896,442.473 1119.161,438.551 1116.896,434.628 1112.367,434.628 1110.102,438.551 
				1112.367,442.473 			"/>
			<polygon fill="#90A4AE" points="1103.273,442.473 1105.537,438.551 1103.273,434.628 1098.743,434.628 1096.479,438.551 
				1098.743,442.473 			"/>
			<polygon fill="#90A4AE" points="1089.649,442.473 1091.914,438.551 1089.649,434.628 1085.12,434.628 1082.855,438.551 
				1085.12,442.473 			"/>
			<polygon fill="#90A4AE" points="1076.025,442.473 1078.29,438.551 1076.025,434.628 1071.496,434.628 1069.232,438.551 
				1071.496,442.473 			"/>
			<polygon fill="#90A4AE" points="1062.402,442.473 1064.666,438.551 1062.402,434.628 1057.873,434.628 1055.608,438.551 
				1057.873,442.473 			"/>
			<polygon fill="#90A4AE" points="1048.778,442.473 1051.043,438.551 1048.778,434.628 1044.249,434.628 1041.984,438.551 
				1044.249,442.473 			"/>
			<polygon fill="#90A4AE" points="1035.154,442.473 1037.419,438.551 1035.154,434.628 1030.625,434.628 1028.361,438.551 
				1030.625,442.473 			"/>
			<polygon fill="#90A4AE" points="1021.531,442.473 1023.795,438.551 1021.531,434.628 1017.002,434.628 1014.737,438.551 
				1017.002,442.473 			"/>
		</g>
	</g>
	<g>
		<g opacity="0.33">
			<polygon fill="#90A4AE" points="1218.46,318.282 1220.725,314.359 1218.46,310.437 1213.931,310.437 1211.666,314.359 
				1213.931,318.282 			"/>
			<polygon fill="#90A4AE" points="1204.837,318.282 1207.101,314.359 1204.837,310.437 1200.307,310.437 1198.043,314.359 
				1200.307,318.282 			"/>
			<polygon fill="#90A4AE" points="1191.213,318.282 1193.477,314.359 1191.213,310.437 1186.684,310.437 1184.419,314.359 
				1186.684,318.282 			"/>
			<polygon fill="#90A4AE" points="1177.589,318.282 1179.854,314.359 1177.589,310.437 1173.06,310.437 1170.795,314.359 
				1173.06,318.282 			"/>
			<polygon fill="#90A4AE" points="1163.966,318.282 1166.23,314.359 1163.966,310.437 1159.436,310.437 1157.172,314.359 
				1159.436,318.282 			"/>
			<polygon fill="#90A4AE" points="1150.342,318.282 1152.607,314.359 1150.342,310.437 1145.813,310.437 1143.548,314.359 
				1145.813,318.282 			"/>
			<polygon fill="#90A4AE" points="1136.718,318.282 1138.983,314.359 1136.718,310.437 1132.189,310.437 1129.925,314.359 
				1132.189,318.282 			"/>
			<polygon fill="#90A4AE" points="1123.095,318.282 1125.359,314.359 1123.095,310.437 1118.566,310.437 1116.301,314.359 
				1118.566,318.282 			"/>
			<polygon fill="#90A4AE" points="1109.471,318.282 1111.736,314.359 1109.471,310.437 1104.942,310.437 1102.677,314.359 
				1104.942,318.282 			"/>
			<polygon fill="#90A4AE" points="1095.847,318.282 1098.112,314.359 1095.847,310.437 1091.318,310.437 1089.054,314.359 
				1091.318,318.282 			"/>
			<polygon fill="#90A4AE" points="1082.224,318.282 1084.488,314.359 1082.224,310.437 1077.695,310.437 1075.43,314.359 
				1077.695,318.282 			"/>
		</g>
		<g opacity="0.33">
			<polygon fill="#90A4AE" points="1078.885,318.282 1081.15,314.359 1078.885,310.437 1074.356,310.437 1072.092,314.359 
				1074.356,318.282 			"/>
			<polygon fill="#90A4AE" points="1065.262,318.282 1067.526,314.359 1065.262,310.437 1060.733,310.437 1058.468,314.359 
				1060.733,318.282 			"/>
			<polygon fill="#90A4AE" points="1051.638,318.282 1053.903,314.359 1051.638,310.437 1047.109,310.437 1044.844,314.359 
				1047.109,318.282 			"/>
			<polygon fill="#90A4AE" points="1038.014,318.282 1040.279,314.359 1038.014,310.437 1033.485,310.437 1031.221,314.359 
				1033.485,318.282 			"/>
			<polygon fill="#90A4AE" points="1024.391,318.282 1026.655,314.359 1024.391,310.437 1019.862,310.437 1017.597,314.359 
				1019.862,318.282 			"/>
			<polygon fill="#90A4AE" points="1010.767,318.282 1013.032,314.359 1010.767,310.437 1006.238,310.437 1003.973,314.359 
				1006.238,318.282 			"/>
			<polygon fill="#90A4AE" points="997.144,318.282 999.408,314.359 997.144,310.437 992.614,310.437 990.35,314.359 
				992.614,318.282 			"/>
			<polygon fill="#90A4AE" points="983.52,318.282 985.784,314.359 983.52,310.437 978.991,310.437 976.726,314.359 
				978.991,318.282 			"/>
			<polygon fill="#90A4AE" points="969.896,318.282 972.161,314.359 969.896,310.437 965.367,310.437 963.102,314.359 
				965.367,318.282 			"/>
			<polygon fill="#90A4AE" points="956.273,318.282 958.537,314.359 956.273,310.437 951.743,310.437 949.479,314.359 
				951.743,318.282 			"/>
			<polygon fill="#90A4AE" points="942.649,318.282 944.914,314.359 942.649,310.437 938.12,310.437 935.855,314.359 
				938.12,318.282 			"/>
		</g>
	</g>
	<g>
		<g opacity="0.33">
			<polygon fill="#90A4AE" points="1094.178,116.976 1096.443,113.054 1094.178,109.131 1089.649,109.131 1087.384,113.054 
				1089.649,116.976 			"/>
			<polygon fill="#90A4AE" points="1080.555,116.976 1082.819,113.054 1080.555,109.131 1076.025,109.131 1073.761,113.054 
				1076.025,116.976 			"/>
			<polygon fill="#90A4AE" points="1066.931,116.976 1069.196,113.054 1066.931,109.131 1062.402,109.131 1060.137,113.054 
				1062.402,116.976 			"/>
			<polygon fill="#90A4AE" points="1053.307,116.976 1055.572,113.054 1053.307,109.131 1048.778,109.131 1046.514,113.054 
				1048.778,116.976 			"/>
			<polygon fill="#90A4AE" points="1039.684,116.976 1041.948,113.054 1039.684,109.131 1035.154,109.131 1032.89,113.054 
				1035.154,116.976 			"/>
			<polygon fill="#90A4AE" points="1026.06,116.976 1028.325,113.054 1026.06,109.131 1021.531,109.131 1019.266,113.054 
				1021.531,116.976 			"/>
			<polygon fill="#90A4AE" points="1012.436,116.976 1014.701,113.054 1012.436,109.131 1007.907,109.131 1005.643,113.054 
				1007.907,116.976 			"/>
			<polygon fill="#90A4AE" points="998.813,116.976 1001.077,113.054 998.813,109.131 994.284,109.131 992.019,113.054 
				994.284,116.976 			"/>
			<polygon fill="#90A4AE" points="985.189,116.976 987.454,113.054 985.189,109.131 980.66,109.131 978.395,113.054 
				980.66,116.976 			"/>
			<polygon fill="#90A4AE" points="971.565,116.976 973.83,113.054 971.565,109.131 967.036,109.131 964.772,113.054 
				967.036,116.976 			"/>
			<polygon fill="#90A4AE" points="957.942,116.976 960.206,113.054 957.942,109.131 953.413,109.131 951.148,113.054 
				953.413,116.976 			"/>
		</g>
		<g opacity="0.33">
			<polygon fill="#90A4AE" points="954.603,116.976 956.868,113.054 954.603,109.131 950.074,109.131 947.81,113.054 
				950.074,116.976 			"/>
			<polygon fill="#90A4AE" points="940.98,116.976 943.244,113.054 940.98,109.131 936.451,109.131 934.186,113.054 
				936.451,116.976 			"/>
			<polygon fill="#90A4AE" points="927.356,116.976 929.621,113.054 927.356,109.131 922.827,109.131 920.562,113.054 
				922.827,116.976 			"/>
			<polygon fill="#90A4AE" points="913.732,116.976 915.997,113.054 913.732,109.131 909.203,109.131 906.939,113.054 
				909.203,116.976 			"/>
			<polygon fill="#90A4AE" points="900.109,116.976 902.373,113.054 900.109,109.131 895.58,109.131 893.315,113.054 
				895.58,116.976 			"/>
			<polygon fill="#90A4AE" points="886.485,116.976 888.75,113.054 886.485,109.131 881.956,109.131 879.691,113.054 
				881.956,116.976 			"/>
			<polygon fill="#90A4AE" points="872.862,116.976 875.126,113.054 872.862,109.131 868.332,109.131 866.068,113.054 
				868.332,116.976 			"/>
			<polygon fill="#90A4AE" points="859.238,116.976 861.503,113.054 859.238,109.131 854.709,109.131 852.444,113.054 
				854.709,116.976 			"/>
			<polygon fill="#90A4AE" points="845.614,116.976 847.879,113.054 845.614,109.131 841.085,109.131 838.821,113.054 
				841.085,116.976 			"/>
			<polygon fill="#90A4AE" points="831.991,116.976 834.255,113.054 831.991,109.131 827.461,109.131 825.197,113.054 
				827.461,116.976 			"/>
			<polygon fill="#90A4AE" points="818.367,116.976 820.632,113.054 818.367,109.131 813.838,109.131 811.573,113.054 
				813.838,116.976 			"/>
		</g>
	</g>
	<polygon fill="#90A4AE" points="1196.996,45.387 1203.613,33.926 1196.996,22.466 1183.763,22.466 1177.147,33.926 
		1183.763,45.387 	"/>
	<polygon fill="#90A4AE" points="1196.996,45.387 1203.613,33.926 1196.996,22.466 1183.763,22.466 1177.147,33.926 
		1183.763,45.387 	"/>
	<polygon fill="#90A4AE" points="1196.996,45.387 1203.613,33.926 1196.996,22.466 1183.763,22.466 1177.147,33.926 
		1183.763,45.387 	"/>
	<g>
		<polygon fill="#90A4AE" points="1198.155,208.193 1199.633,206.469 1161.528,173.79 1005.619,173.79 1005.619,176.06 
			1160.687,176.06 		"/>
	</g>
	<g>
		<polygon fill="#90A4AE" points="1183.15,81.114 1184.756,79.509 1135.038,29.791 1048.852,29.791 1048.852,32.061 
			1134.097,32.061 		"/>
	</g>
	<g>
		<polygon fill="#90A4AE" points="962.569,99.411 1114.969,99.411 1133.099,81.28 1131.494,79.675 1114.028,97.14 962.569,97.14 		
			"/>
	</g>
	<g>
		<polygon fill="#90A4AE" points="1136.035,261.628 1137.641,260.022 1107.507,229.888 952.871,229.888 952.871,232.158 
			1106.566,232.158 		"/>
	</g>
	<g>
		<polygon fill="#90A4AE" points="952.871,294.032 1134.186,294.032 1164.888,263.33 1163.283,261.725 1133.245,291.762 
			952.871,291.762 		"/>
	</g>
</g>
<g opacity="0.09">
	<path fill="#90A4AE" d="M1038.807,554.999l61.793,107.029h123.586l61.793-107.029l-61.793-107.028H1100.6L1038.807,554.999z
		 M1072.824,554.999l44.785-77.569h89.57l44.785,77.569l-44.785,77.569h-89.57L1072.824,554.999z"/>
	<path fill="#90A4AE" d="M1095.241,554.999l33.576,58.155h67.152l33.576-58.155l-33.576-58.155h-67.152L1095.241,554.999z
		 M1113.724,554.999l24.334-42.148h48.669l24.334,42.148l-24.334,42.148h-48.669L1113.724,554.999z"/>
	<path fill="#90A4AE" d="M1137.89,554.999l12.252,21.221h24.503l12.252-21.221l-12.252-21.221h-24.503L1137.89,554.999z
		 M1144.634,554.999l8.879-15.38h17.759l8.88,15.38l-8.88,15.38h-17.759L1144.634,554.999z"/>
	<g>
		<path fill="#90A4AE" d="M1017.119,554.999l72.637-125.811h145.274l72.637,125.811L1235.03,680.81h-145.274L1017.119,554.999z
			 M1303.079,554.999l-70.343-121.838H1092.05l-70.343,121.838l70.343,121.837h140.686L1303.079,554.999z"/>
	</g>
	<g>
		<polygon fill="#90A4AE" points="1086.754,436.457 1089.564,433.647 1082.075,426.159 808.368,426.159 808.368,430.132 
			1080.43,430.132 		"/>
	</g>
	<polygon fill="#90A4AE" points="814.984,439.606 821.601,428.145 814.984,416.685 801.751,416.685 795.134,428.145 
		801.751,439.606 	"/>
	<polygon fill="#90A4AE" points="908.41,483.642 915.027,472.182 908.41,460.722 895.177,460.722 888.56,472.182 895.177,483.642 	
		"/>
	<polygon fill="#90A4AE" points="940.996,393.055 947.613,381.594 940.996,370.134 927.763,370.134 921.147,381.594 
		927.763,393.055 	"/>
	<polygon fill="#90A4AE" points="940.996,393.055 947.613,381.594 940.996,370.134 927.763,370.134 921.147,381.594 
		927.763,393.055 	"/>
	<polygon fill="#90A4AE" points="673.166,566.459 679.783,554.999 673.166,543.539 659.933,543.539 653.316,554.999 
		659.933,566.459 	"/>
	<polygon fill="#90A4AE" points="796.63,620.95 803.247,609.49 796.63,598.03 783.397,598.03 776.781,609.49 783.397,620.95 	"/>
	<polygon fill="#90A4AE" points="801.751,512.859 808.368,501.399 801.751,489.938 788.518,489.938 781.901,501.399 
		788.518,512.859 	"/>
	<polygon fill="#90A4AE" points="725.106,710.996 731.723,699.536 725.106,688.075 711.873,688.075 705.256,699.536 
		711.873,710.996 	"/>
	<polygon fill="#90A4AE" points="889.176,743.267 895.793,731.807 889.176,720.347 875.943,720.347 869.326,731.807 
		875.943,743.267 	"/>
	<g>
		<polygon fill="#90A4AE" points="1048.155,504.187 1050.965,501.378 1020.396,470.809 901.794,470.809 901.794,474.783 
			1018.75,474.783 		"/>
	</g>
	<g>
		<rect x="666.549" y="553.012" fill="#90A4AE" width="352.864" height="3.974"/>
	</g>
	<g>
		
			<rect x="955.29" y="448.181" transform="matrix(0.7071 -0.7071 0.7071 0.7071 -29.399 829.3612)" fill="#90A4AE" width="62.276" height="3.974"/>
	</g>
	<g>
		<polygon fill="#90A4AE" points="1038.423,429.55 1041.233,426.741 994.1,379.607 934.38,379.607 934.38,383.581 992.454,383.581 
					"/>
	</g>
	<g>
		<polygon fill="#90A4AE" points="790.014,611.476 916.717,611.476 971.79,556.404 968.98,553.594 915.071,607.503 790.014,607.503 
					"/>
	</g>
	<g>
		<polygon fill="#90A4AE" points="718.49,701.522 950.056,701.522 950.638,700.94 1048.035,603.544 1045.225,600.734 
			948.41,697.549 718.49,697.549 		"/>
	</g>
	<g>
		
			<rect x="953.681" y="587.779" transform="matrix(0.7072 -0.707 0.707 0.7072 -166.5159 860.5024)" fill="#90A4AE" width="3.974" height="87.029"/>
	</g>
	<g>
		<polygon fill="#90A4AE" points="1030.26,535.183 1033.07,532.374 1000.108,499.412 795.134,499.412 795.134,503.385 
			998.462,503.385 		"/>
	</g>
	<g>
		<polygon fill="#90A4AE" points="880.199,733.794 1012.25,733.794 1082.611,663.432 1079.801,660.623 1010.604,729.82 
			880.199,729.82 		"/>
	</g>
	<g>
		<g opacity="0.33">
			<polygon fill="#90A4AE" points="1165.624,362.676 1167.889,358.753 1165.624,354.831 1161.095,354.831 1158.83,358.753 
				1161.095,362.676 			"/>
			<polygon fill="#90A4AE" points="1152,362.676 1154.265,358.753 1152,354.831 1147.471,354.831 1145.207,358.753 
				1147.471,362.676 			"/>
			<polygon fill="#90A4AE" points="1138.377,362.676 1140.641,358.753 1138.377,354.831 1133.847,354.831 1131.583,358.753 
				1133.847,362.676 			"/>
			<polygon fill="#90A4AE" points="1124.753,362.676 1127.018,358.753 1124.753,354.831 1120.224,354.831 1117.959,358.753 
				1120.224,362.676 			"/>
			<polygon fill="#90A4AE" points="1111.129,362.676 1113.394,358.753 1111.129,354.831 1106.6,354.831 1104.336,358.753 
				1106.6,362.676 			"/>
			<polygon fill="#90A4AE" points="1097.506,362.676 1099.77,358.753 1097.506,354.831 1092.977,354.831 1090.712,358.753 
				1092.977,362.676 			"/>
			<polygon fill="#90A4AE" points="1083.882,362.676 1086.147,358.753 1083.882,354.831 1079.353,354.831 1077.088,358.753 
				1079.353,362.676 			"/>
			<polygon fill="#90A4AE" points="1070.259,362.676 1072.523,358.753 1070.259,354.831 1065.729,354.831 1063.465,358.753 
				1065.729,362.676 			"/>
			<polygon fill="#90A4AE" points="1056.635,362.676 1058.899,358.753 1056.635,354.831 1052.106,354.831 1049.841,358.753 
				1052.106,362.676 			"/>
			<polygon fill="#90A4AE" points="1043.011,362.676 1045.276,358.753 1043.011,354.831 1038.482,354.831 1036.217,358.753 
				1038.482,362.676 			"/>
			<polygon fill="#90A4AE" points="1029.388,362.676 1031.652,358.753 1029.388,354.831 1024.858,354.831 1022.594,358.753 
				1024.858,362.676 			"/>
		</g>
		<g opacity="0.33">
			<polygon fill="#90A4AE" points="1026.049,362.676 1028.314,358.753 1026.049,354.831 1021.52,354.831 1019.255,358.753 
				1021.52,362.676 			"/>
			<polygon fill="#90A4AE" points="1012.426,362.676 1014.69,358.753 1012.426,354.831 1007.896,354.831 1005.632,358.753 
				1007.896,362.676 			"/>
			<polygon fill="#90A4AE" points="998.802,362.676 1001.066,358.753 998.802,354.831 994.273,354.831 992.008,358.753 
				994.273,362.676 			"/>
			<polygon fill="#90A4AE" points="985.178,362.676 987.443,358.753 985.178,354.831 980.649,354.831 978.384,358.753 
				980.649,362.676 			"/>
			<polygon fill="#90A4AE" points="971.555,362.676 973.819,358.753 971.555,354.831 967.025,354.831 964.761,358.753 
				967.025,362.676 			"/>
			<polygon fill="#90A4AE" points="957.931,362.676 960.196,358.753 957.931,354.831 953.402,354.831 951.137,358.753 
				953.402,362.676 			"/>
			<polygon fill="#90A4AE" points="944.307,362.676 946.572,358.753 944.307,354.831 939.778,354.831 937.514,358.753 
				939.778,362.676 			"/>
			<polygon fill="#90A4AE" points="930.684,362.676 932.948,358.753 930.684,354.831 926.155,354.831 923.89,358.753 
				926.155,362.676 			"/>
			<polygon fill="#90A4AE" points="917.06,362.676 919.325,358.753 917.06,354.831 912.531,354.831 910.266,358.753 
				912.531,362.676 			"/>
			<polygon fill="#90A4AE" points="903.436,362.676 905.701,358.753 903.436,354.831 898.907,354.831 896.643,358.753 
				898.907,362.676 			"/>
			<polygon fill="#90A4AE" points="889.813,362.676 892.077,358.753 889.813,354.831 885.284,354.831 883.019,358.753 
				885.284,362.676 			"/>
		</g>
	</g>
	<g>
		<g opacity="0.33">
			<polygon fill="#90A4AE" points="1165.624,763.411 1167.889,759.488 1165.624,755.566 1161.095,755.566 1158.83,759.488 
				1161.095,763.411 			"/>
			<polygon fill="#90A4AE" points="1152,763.411 1154.265,759.488 1152,755.566 1147.471,755.566 1145.207,759.488 
				1147.471,763.411 			"/>
			<polygon fill="#90A4AE" points="1138.377,763.411 1140.641,759.488 1138.377,755.566 1133.847,755.566 1131.583,759.488 
				1133.847,763.411 			"/>
			<polygon fill="#90A4AE" points="1124.753,763.411 1127.018,759.488 1124.753,755.566 1120.224,755.566 1117.959,759.488 
				1120.224,763.411 			"/>
			<polygon fill="#90A4AE" points="1111.129,763.411 1113.394,759.488 1111.129,755.566 1106.6,755.566 1104.336,759.488 
				1106.6,763.411 			"/>
			<polygon fill="#90A4AE" points="1097.506,763.411 1099.77,759.488 1097.506,755.566 1092.977,755.566 1090.712,759.488 
				1092.977,763.411 			"/>
			<polygon fill="#90A4AE" points="1083.882,763.411 1086.147,759.488 1083.882,755.566 1079.353,755.566 1077.088,759.488 
				1079.353,763.411 			"/>
			<polygon fill="#90A4AE" points="1070.259,763.411 1072.523,759.488 1070.259,755.566 1065.729,755.566 1063.465,759.488 
				1065.729,763.411 			"/>
			<polygon fill="#90A4AE" points="1056.635,763.411 1058.899,759.488 1056.635,755.566 1052.106,755.566 1049.841,759.488 
				1052.106,763.411 			"/>
			<polygon fill="#90A4AE" points="1043.011,763.411 1045.276,759.488 1043.011,755.566 1038.482,755.566 1036.217,759.488 
				1038.482,763.411 			"/>
			<polygon fill="#90A4AE" points="1029.388,763.411 1031.652,759.488 1029.388,755.566 1024.858,755.566 1022.594,759.488 
				1024.858,763.411 			"/>
		</g>
		<g opacity="0.33">
			<polygon fill="#90A4AE" points="1026.049,763.411 1028.314,759.488 1026.049,755.566 1021.52,755.566 1019.255,759.488 
				1021.52,763.411 			"/>
			<polygon fill="#90A4AE" points="1012.426,763.411 1014.69,759.488 1012.426,755.566 1007.896,755.566 1005.632,759.488 
				1007.896,763.411 			"/>
			<polygon fill="#90A4AE" points="998.802,763.411 1001.066,759.488 998.802,755.566 994.273,755.566 992.008,759.488 
				994.273,763.411 			"/>
			<polygon fill="#90A4AE" points="985.178,763.411 987.443,759.488 985.178,755.566 980.649,755.566 978.384,759.488 
				980.649,763.411 			"/>
			<polygon fill="#90A4AE" points="971.555,763.411 973.819,759.488 971.555,755.566 967.025,755.566 964.761,759.488 
				967.025,763.411 			"/>
			<polygon fill="#90A4AE" points="957.931,763.411 960.196,759.488 957.931,755.566 953.402,755.566 951.137,759.488 
				953.402,763.411 			"/>
			<polygon fill="#90A4AE" points="944.307,763.411 946.572,759.488 944.307,755.566 939.778,755.566 937.514,759.488 
				939.778,763.411 			"/>
			<polygon fill="#90A4AE" points="930.684,763.411 932.948,759.488 930.684,755.566 926.155,755.566 923.89,759.488 
				926.155,763.411 			"/>
			<polygon fill="#90A4AE" points="917.06,763.411 919.325,759.488 917.06,755.566 912.531,755.566 910.266,759.488 
				912.531,763.411 			"/>
			<polygon fill="#90A4AE" points="903.436,763.411 905.701,759.488 903.436,755.566 898.907,755.566 896.643,759.488 
				898.907,763.411 			"/>
			<polygon fill="#90A4AE" points="889.813,763.411 892.077,759.488 889.813,755.566 885.284,755.566 883.019,759.488 
				885.284,763.411 			"/>
		</g>
	</g>
	<g>
		<g opacity="0.33">
			<polygon fill="#90A4AE" points="1285.377,811.093 1287.641,807.171 1285.377,803.248 1280.848,803.248 1278.583,807.171 
				1280.848,811.093 			"/>
			<polygon fill="#90A4AE" points="1271.753,811.093 1274.018,807.171 1271.753,803.248 1267.224,803.248 1264.959,807.171 
				1267.224,811.093 			"/>
			<polygon fill="#90A4AE" points="1258.129,811.093 1260.394,807.171 1258.129,803.248 1253.6,803.248 1251.336,807.171 
				1253.6,811.093 			"/>
			<polygon fill="#90A4AE" points="1244.506,811.093 1246.771,807.171 1244.506,803.248 1239.977,803.248 1237.712,807.171 
				1239.977,811.093 			"/>
			<polygon fill="#90A4AE" points="1230.882,811.093 1233.147,807.171 1230.882,803.248 1226.353,803.248 1224.088,807.171 
				1226.353,811.093 			"/>
			<polygon fill="#90A4AE" points="1217.259,811.093 1219.523,807.171 1217.259,803.248 1212.729,803.248 1210.465,807.171 
				1212.729,811.093 			"/>
			<polygon fill="#90A4AE" points="1203.635,811.093 1205.9,807.171 1203.635,803.248 1199.106,803.248 1196.841,807.171 
				1199.106,811.093 			"/>
			<polygon fill="#90A4AE" points="1190.011,811.093 1192.276,807.171 1190.011,803.248 1185.482,803.248 1183.217,807.171 
				1185.482,811.093 			"/>
			<polygon fill="#90A4AE" points="1176.388,811.093 1178.652,807.171 1176.388,803.248 1171.858,803.248 1169.594,807.171 
				1171.858,811.093 			"/>
			<polygon fill="#90A4AE" points="1162.764,811.093 1165.029,807.171 1162.764,803.248 1158.235,803.248 1155.97,807.171 
				1158.235,811.093 			"/>
			<polygon fill="#90A4AE" points="1149.14,811.093 1151.405,807.171 1149.14,803.248 1144.611,803.248 1142.347,807.171 
				1144.611,811.093 			"/>
		</g>
		<g opacity="0.33">
			<polygon fill="#90A4AE" points="1145.802,811.093 1148.066,807.171 1145.802,803.248 1141.273,803.248 1139.008,807.171 
				1141.273,811.093 			"/>
			<polygon fill="#90A4AE" points="1132.178,811.093 1134.443,807.171 1132.178,803.248 1127.649,803.248 1125.384,807.171 
				1127.649,811.093 			"/>
			<polygon fill="#90A4AE" points="1118.555,811.093 1120.819,807.171 1118.555,803.248 1114.025,803.248 1111.761,807.171 
				1114.025,811.093 			"/>
			<polygon fill="#90A4AE" points="1104.931,811.093 1107.196,807.171 1104.931,803.248 1100.402,803.248 1098.137,807.171 
				1100.402,811.093 			"/>
			<polygon fill="#90A4AE" points="1091.307,811.093 1093.572,807.171 1091.307,803.248 1086.778,803.248 1084.514,807.171 
				1086.778,811.093 			"/>
			<polygon fill="#90A4AE" points="1077.684,811.093 1079.948,807.171 1077.684,803.248 1073.155,803.248 1070.89,807.171 
				1073.155,811.093 			"/>
			<polygon fill="#90A4AE" points="1064.06,811.093 1066.325,807.171 1064.06,803.248 1059.531,803.248 1057.266,807.171 
				1059.531,811.093 			"/>
			<polygon fill="#90A4AE" points="1050.436,811.093 1052.701,807.171 1050.436,803.248 1045.907,803.248 1043.643,807.171 
				1045.907,811.093 			"/>
			<polygon fill="#90A4AE" points="1036.813,811.093 1039.077,807.171 1036.813,803.248 1032.284,803.248 1030.019,807.171 
				1032.284,811.093 			"/>
			<polygon fill="#90A4AE" points="1023.189,811.093 1025.454,807.171 1023.189,803.248 1018.66,803.248 1016.395,807.171 
				1018.66,811.093 			"/>
			<polygon fill="#90A4AE" points="1009.566,811.093 1011.83,807.171 1009.566,803.248 1005.036,803.248 1002.772,807.171 
				1005.036,811.093 			"/>
		</g>
	</g>
	<g>
		<g opacity="0.33">
			<polygon fill="#90A4AE" points="1035.963,537.701 1038.228,533.778 1035.963,529.856 1031.434,529.856 1029.169,533.778 
				1031.434,537.701 			"/>
			<polygon fill="#90A4AE" points="1022.339,537.701 1024.604,533.778 1022.339,529.856 1017.81,529.856 1015.546,533.778 
				1017.81,537.701 			"/>
			<polygon fill="#90A4AE" points="1008.716,537.701 1010.98,533.778 1008.716,529.856 1004.187,529.856 1001.922,533.778 
				1004.187,537.701 			"/>
			<polygon fill="#90A4AE" points="995.092,537.701 997.357,533.778 995.092,529.856 990.563,529.856 988.298,533.778 
				990.563,537.701 			"/>
			<polygon fill="#90A4AE" points="981.469,537.701 983.733,533.778 981.469,529.856 976.939,529.856 974.675,533.778 
				976.939,537.701 			"/>
			<polygon fill="#90A4AE" points="967.845,537.701 970.109,533.778 967.845,529.856 963.316,529.856 961.051,533.778 
				963.316,537.701 			"/>
			<polygon fill="#90A4AE" points="954.221,537.701 956.486,533.778 954.221,529.856 949.692,529.856 947.427,533.778 
				949.692,537.701 			"/>
			<polygon fill="#90A4AE" points="940.598,537.701 942.862,533.778 940.598,529.856 936.068,529.856 933.804,533.778 
				936.068,537.701 			"/>
			<polygon fill="#90A4AE" points="926.974,537.701 929.239,533.778 926.974,529.856 922.445,529.856 920.18,533.778 
				922.445,537.701 			"/>
			<polygon fill="#90A4AE" points="913.35,537.701 915.615,533.778 913.35,529.856 908.821,529.856 906.557,533.778 
				908.821,537.701 			"/>
			<polygon fill="#90A4AE" points="899.727,537.701 901.991,533.778 899.727,529.856 895.197,529.856 892.933,533.778 
				895.197,537.701 			"/>
		</g>
		<g opacity="0.33">
			<polygon fill="#90A4AE" points="896.388,537.701 898.653,533.778 896.388,529.856 891.859,529.856 889.594,533.778 
				891.859,537.701 			"/>
			<polygon fill="#90A4AE" points="882.765,537.701 885.029,533.778 882.765,529.856 878.235,529.856 875.971,533.778 
				878.235,537.701 			"/>
			<polygon fill="#90A4AE" points="869.141,537.701 871.406,533.778 869.141,529.856 864.612,529.856 862.347,533.778 
				864.612,537.701 			"/>
			<polygon fill="#90A4AE" points="855.517,537.701 857.782,533.778 855.517,529.856 850.988,529.856 848.724,533.778 
				850.988,537.701 			"/>
			<polygon fill="#90A4AE" points="841.894,537.701 844.158,533.778 841.894,529.856 837.364,529.856 835.1,533.778 
				837.364,537.701 			"/>
			<polygon fill="#90A4AE" points="828.27,537.701 830.535,533.778 828.27,529.856 823.741,529.856 821.476,533.778 
				823.741,537.701 			"/>
			<polygon fill="#90A4AE" points="814.646,537.701 816.911,533.778 814.646,529.856 810.117,529.856 807.853,533.778 
				810.117,537.701 			"/>
			<polygon fill="#90A4AE" points="801.023,537.701 803.287,533.778 801.023,529.856 796.494,529.856 794.229,533.778 
				796.494,537.701 			"/>
			<polygon fill="#90A4AE" points="787.399,537.701 789.664,533.778 787.399,529.856 782.87,529.856 780.605,533.778 
				782.87,537.701 			"/>
			<polygon fill="#90A4AE" points="773.776,537.701 776.04,533.778 773.776,529.856 769.246,529.856 766.982,533.778 
				769.246,537.701 			"/>
			<polygon fill="#90A4AE" points="760.152,537.701 762.416,533.778 760.152,529.856 755.623,529.856 753.358,533.778 
				755.623,537.701 			"/>
		</g>
	</g>
	<g>
		<g opacity="0.33">
			<polygon fill="#90A4AE" points="1356.833,420.607 1359.098,416.685 1356.833,412.763 1352.304,412.763 1350.04,416.685 
				1352.304,420.607 			"/>
			<polygon fill="#90A4AE" points="1343.21,420.607 1345.474,416.685 1343.21,412.763 1338.68,412.763 1336.416,416.685 
				1338.68,420.607 			"/>
			<polygon fill="#90A4AE" points="1329.586,420.607 1331.851,416.685 1329.586,412.763 1325.057,412.763 1322.792,416.685 
				1325.057,420.607 			"/>
			<polygon fill="#90A4AE" points="1315.962,420.607 1318.227,416.685 1315.962,412.763 1311.433,412.763 1309.169,416.685 
				1311.433,420.607 			"/>
			<polygon fill="#90A4AE" points="1302.339,420.607 1304.603,416.685 1302.339,412.763 1297.81,412.763 1295.545,416.685 
				1297.81,420.607 			"/>
			<polygon fill="#90A4AE" points="1288.715,420.607 1290.98,416.685 1288.715,412.763 1284.186,412.763 1281.921,416.685 
				1284.186,420.607 			"/>
			<polygon fill="#90A4AE" points="1275.092,420.607 1277.356,416.685 1275.092,412.763 1270.562,412.763 1268.298,416.685 
				1270.562,420.607 			"/>
			<polygon fill="#90A4AE" points="1261.468,420.607 1263.732,416.685 1261.468,412.763 1256.939,412.763 1254.674,416.685 
				1256.939,420.607 			"/>
			<polygon fill="#90A4AE" points="1247.844,420.607 1250.109,416.685 1247.844,412.763 1243.315,412.763 1241.05,416.685 
				1243.315,420.607 			"/>
			<polygon fill="#90A4AE" points="1234.221,420.607 1236.485,416.685 1234.221,412.763 1229.691,412.763 1227.427,416.685 
				1229.691,420.607 			"/>
			<polygon fill="#90A4AE" points="1220.597,420.607 1222.862,416.685 1220.597,412.763 1216.068,412.763 1213.803,416.685 
				1216.068,420.607 			"/>
		</g>
		<g opacity="0.33">
			<polygon fill="#90A4AE" points="1217.259,420.607 1219.523,416.685 1217.259,412.763 1212.729,412.763 1210.465,416.685 
				1212.729,420.607 			"/>
			<polygon fill="#90A4AE" points="1203.635,420.607 1205.899,416.685 1203.635,412.763 1199.106,412.763 1196.841,416.685 
				1199.106,420.607 			"/>
			<polygon fill="#90A4AE" points="1190.011,420.607 1192.276,416.685 1190.011,412.763 1185.482,412.763 1183.217,416.685 
				1185.482,420.607 			"/>
			<polygon fill="#90A4AE" points="1176.388,420.607 1178.652,416.685 1176.388,412.763 1171.858,412.763 1169.594,416.685 
				1171.858,420.607 			"/>
			<polygon fill="#90A4AE" points="1162.764,420.607 1165.029,416.685 1162.764,412.763 1158.235,412.763 1155.97,416.685 
				1158.235,420.607 			"/>
			<polygon fill="#90A4AE" points="1149.14,420.607 1151.405,416.685 1149.14,412.763 1144.611,412.763 1142.347,416.685 
				1144.611,420.607 			"/>
			<polygon fill="#90A4AE" points="1135.517,420.607 1137.781,416.685 1135.517,412.763 1130.987,412.763 1128.723,416.685 
				1130.987,420.607 			"/>
			<polygon fill="#90A4AE" points="1121.893,420.607 1124.158,416.685 1121.893,412.763 1117.364,412.763 1115.099,416.685 
				1117.364,420.607 			"/>
			<polygon fill="#90A4AE" points="1108.269,420.607 1110.534,416.685 1108.269,412.763 1103.74,412.763 1101.476,416.685 
				1103.74,420.607 			"/>
			<polygon fill="#90A4AE" points="1094.646,420.607 1096.91,416.685 1094.646,412.763 1090.117,412.763 1087.852,416.685 
				1090.117,420.607 			"/>
			<polygon fill="#90A4AE" points="1081.022,420.607 1083.287,416.685 1081.022,412.763 1076.493,412.763 1074.228,416.685 
				1076.493,420.607 			"/>
		</g>
	</g>
	<g>
		<g opacity="0.33">
			<polygon fill="#90A4AE" points="1041.342,790.141 1043.607,786.219 1041.342,782.297 1036.813,782.297 1034.548,786.219 
				1036.813,790.141 			"/>
			<polygon fill="#90A4AE" points="1027.718,790.141 1029.983,786.219 1027.718,782.297 1023.189,782.297 1020.925,786.219 
				1023.189,790.141 			"/>
			<polygon fill="#90A4AE" points="1014.095,790.141 1016.359,786.219 1014.095,782.297 1009.566,782.297 1007.301,786.219 
				1009.566,790.141 			"/>
			<polygon fill="#90A4AE" points="1000.471,790.141 1002.736,786.219 1000.471,782.297 995.942,782.297 993.677,786.219 
				995.942,790.141 			"/>
			<polygon fill="#90A4AE" points="986.847,790.141 989.112,786.219 986.847,782.297 982.318,782.297 980.054,786.219 
				982.318,790.141 			"/>
			<polygon fill="#90A4AE" points="973.224,790.141 975.488,786.219 973.224,782.297 968.695,782.297 966.43,786.219 
				968.695,790.141 			"/>
			<polygon fill="#90A4AE" points="959.6,790.141 961.865,786.219 959.6,782.297 955.071,782.297 952.806,786.219 955.071,790.141 
							"/>
			<polygon fill="#90A4AE" points="945.977,790.141 948.241,786.219 945.977,782.297 941.447,782.297 939.183,786.219 
				941.447,790.141 			"/>
			<polygon fill="#90A4AE" points="932.353,790.141 934.618,786.219 932.353,782.297 927.824,782.297 925.559,786.219 
				927.824,790.141 			"/>
			<polygon fill="#90A4AE" points="918.729,790.141 920.994,786.219 918.729,782.297 914.2,782.297 911.935,786.219 914.2,790.141 
							"/>
			<polygon fill="#90A4AE" points="905.106,790.141 907.37,786.219 905.106,782.297 900.576,782.297 898.312,786.219 
				900.576,790.141 			"/>
		</g>
		<g opacity="0.33">
			<polygon fill="#90A4AE" points="901.767,790.141 904.032,786.219 901.767,782.297 897.238,782.297 894.973,786.219 
				897.238,790.141 			"/>
			<polygon fill="#90A4AE" points="888.144,790.141 890.408,786.219 888.144,782.297 883.614,782.297 881.35,786.219 
				883.614,790.141 			"/>
			<polygon fill="#90A4AE" points="874.52,790.141 876.785,786.219 874.52,782.297 869.991,782.297 867.726,786.219 
				869.991,790.141 			"/>
			<polygon fill="#90A4AE" points="860.896,790.141 863.161,786.219 860.896,782.297 856.367,782.297 854.102,786.219 
				856.367,790.141 			"/>
			<polygon fill="#90A4AE" points="847.273,790.141 849.537,786.219 847.273,782.297 842.743,782.297 840.479,786.219 
				842.743,790.141 			"/>
			<polygon fill="#90A4AE" points="833.649,790.141 835.914,786.219 833.649,782.297 829.12,782.297 826.855,786.219 
				829.12,790.141 			"/>
			<polygon fill="#90A4AE" points="820.025,790.141 822.29,786.219 820.025,782.297 815.496,782.297 813.232,786.219 
				815.496,790.141 			"/>
			<polygon fill="#90A4AE" points="806.402,790.141 808.666,786.219 806.402,782.297 801.873,782.297 799.608,786.219 
				801.873,790.141 			"/>
			<polygon fill="#90A4AE" points="792.778,790.141 795.043,786.219 792.778,782.297 788.249,782.297 785.984,786.219 
				788.249,790.141 			"/>
			<polygon fill="#90A4AE" points="779.154,790.141 781.419,786.219 779.154,782.297 774.625,782.297 772.361,786.219 
				774.625,790.141 			"/>
			<polygon fill="#90A4AE" points="765.531,790.141 767.795,786.219 765.531,782.297 761.002,782.297 758.737,786.219 
				761.002,790.141 			"/>
		</g>
	</g>
	<g>
		<g opacity="0.33">
			<polygon fill="#90A4AE" points="962.46,665.95 964.725,662.027 962.46,658.105 957.931,658.105 955.666,662.027 957.931,665.95 
							"/>
			<polygon fill="#90A4AE" points="948.837,665.95 951.101,662.027 948.837,658.105 944.307,658.105 942.043,662.027 
				944.307,665.95 			"/>
			<polygon fill="#90A4AE" points="935.213,665.95 937.477,662.027 935.213,658.105 930.684,658.105 928.419,662.027 
				930.684,665.95 			"/>
			<polygon fill="#90A4AE" points="921.589,665.95 923.854,662.027 921.589,658.105 917.06,658.105 914.795,662.027 917.06,665.95 
							"/>
			<polygon fill="#90A4AE" points="907.966,665.95 910.23,662.027 907.966,658.105 903.436,658.105 901.172,662.027 903.436,665.95 
							"/>
			<polygon fill="#90A4AE" points="894.342,665.95 896.607,662.027 894.342,658.105 889.813,658.105 887.548,662.027 
				889.813,665.95 			"/>
			<polygon fill="#90A4AE" points="880.718,665.95 882.983,662.027 880.718,658.105 876.189,658.105 873.925,662.027 
				876.189,665.95 			"/>
			<polygon fill="#90A4AE" points="867.095,665.95 869.359,662.027 867.095,658.105 862.566,658.105 860.301,662.027 
				862.566,665.95 			"/>
			<polygon fill="#90A4AE" points="853.471,665.95 855.736,662.027 853.471,658.105 848.942,658.105 846.677,662.027 
				848.942,665.95 			"/>
			<polygon fill="#90A4AE" points="839.847,665.95 842.112,662.027 839.847,658.105 835.318,658.105 833.054,662.027 
				835.318,665.95 			"/>
			<polygon fill="#90A4AE" points="826.224,665.95 828.488,662.027 826.224,658.105 821.695,658.105 819.43,662.027 821.695,665.95 
							"/>
		</g>
		<g opacity="0.33">
			<polygon fill="#90A4AE" points="822.885,665.95 825.15,662.027 822.885,658.105 818.356,658.105 816.092,662.027 818.356,665.95 
							"/>
			<polygon fill="#90A4AE" points="809.262,665.95 811.526,662.027 809.262,658.105 804.733,658.105 802.468,662.027 
				804.733,665.95 			"/>
			<polygon fill="#90A4AE" points="795.638,665.95 797.903,662.027 795.638,658.105 791.109,658.105 788.844,662.027 
				791.109,665.95 			"/>
			<polygon fill="#90A4AE" points="782.014,665.95 784.279,662.027 782.014,658.105 777.485,658.105 775.221,662.027 
				777.485,665.95 			"/>
			<polygon fill="#90A4AE" points="768.391,665.95 770.655,662.027 768.391,658.105 763.862,658.105 761.597,662.027 
				763.862,665.95 			"/>
			<polygon fill="#90A4AE" points="754.767,665.95 757.032,662.027 754.767,658.105 750.238,658.105 747.973,662.027 
				750.238,665.95 			"/>
			<polygon fill="#90A4AE" points="741.144,665.95 743.408,662.027 741.144,658.105 736.614,658.105 734.35,662.027 736.614,665.95 
							"/>
			<polygon fill="#90A4AE" points="727.52,665.95 729.784,662.027 727.52,658.105 722.991,658.105 720.726,662.027 722.991,665.95 
							"/>
			<polygon fill="#90A4AE" points="713.896,665.95 716.161,662.027 713.896,658.105 709.367,658.105 707.102,662.027 
				709.367,665.95 			"/>
			<polygon fill="#90A4AE" points="700.273,665.95 702.537,662.027 700.273,658.105 695.743,658.105 693.479,662.027 
				695.743,665.95 			"/>
			<polygon fill="#90A4AE" points="686.649,665.95 688.914,662.027 686.649,658.105 682.12,658.105 679.855,662.027 682.12,665.95 
							"/>
		</g>
	</g>
	<g>
		<g opacity="0.33">
			<polygon fill="#90A4AE" points="838.178,464.644 840.443,460.722 838.178,456.799 833.649,456.799 831.384,460.722 
				833.649,464.644 			"/>
			<polygon fill="#90A4AE" points="824.555,464.644 826.819,460.722 824.555,456.799 820.025,456.799 817.761,460.722 
				820.025,464.644 			"/>
			<polygon fill="#90A4AE" points="810.931,464.644 813.196,460.722 810.931,456.799 806.402,456.799 804.137,460.722 
				806.402,464.644 			"/>
			<polygon fill="#90A4AE" points="797.307,464.644 799.572,460.722 797.307,456.799 792.778,456.799 790.514,460.722 
				792.778,464.644 			"/>
			<polygon fill="#90A4AE" points="783.684,464.644 785.948,460.722 783.684,456.799 779.154,456.799 776.89,460.722 
				779.154,464.644 			"/>
			<polygon fill="#90A4AE" points="770.06,464.644 772.325,460.722 770.06,456.799 765.531,456.799 763.266,460.722 
				765.531,464.644 			"/>
			<polygon fill="#90A4AE" points="756.436,464.644 758.701,460.722 756.436,456.799 751.907,456.799 749.643,460.722 
				751.907,464.644 			"/>
			<polygon fill="#90A4AE" points="742.813,464.644 745.077,460.722 742.813,456.799 738.284,456.799 736.019,460.722 
				738.284,464.644 			"/>
			<polygon fill="#90A4AE" points="729.189,464.644 731.454,460.722 729.189,456.799 724.66,456.799 722.395,460.722 
				724.66,464.644 			"/>
			<polygon fill="#90A4AE" points="715.565,464.644 717.83,460.722 715.565,456.799 711.036,456.799 708.772,460.722 
				711.036,464.644 			"/>
			<polygon fill="#90A4AE" points="701.942,464.644 704.206,460.722 701.942,456.799 697.413,456.799 695.148,460.722 
				697.413,464.644 			"/>
		</g>
		<g opacity="0.33">
			<polygon fill="#90A4AE" points="698.603,464.644 700.868,460.722 698.603,456.799 694.074,456.799 691.81,460.722 
				694.074,464.644 			"/>
			<polygon fill="#90A4AE" points="684.98,464.644 687.244,460.722 684.98,456.799 680.451,456.799 678.186,460.722 
				680.451,464.644 			"/>
			<polygon fill="#90A4AE" points="671.356,464.644 673.621,460.722 671.356,456.799 666.827,456.799 664.562,460.722 
				666.827,464.644 			"/>
			<polygon fill="#90A4AE" points="657.732,464.644 659.997,460.722 657.732,456.799 653.203,456.799 650.939,460.722 
				653.203,464.644 			"/>
			<polygon fill="#90A4AE" points="644.109,464.644 646.373,460.722 644.109,456.799 639.58,456.799 637.315,460.722 
				639.58,464.644 			"/>
			<polygon fill="#90A4AE" points="630.485,464.644 632.75,460.722 630.485,456.799 625.956,456.799 623.691,460.722 
				625.956,464.644 			"/>
			<polygon fill="#90A4AE" points="616.862,464.644 619.126,460.722 616.862,456.799 612.332,456.799 610.068,460.722 
				612.332,464.644 			"/>
			<polygon fill="#90A4AE" points="603.238,464.644 605.503,460.722 603.238,456.799 598.709,456.799 596.444,460.722 
				598.709,464.644 			"/>
			<polygon fill="#90A4AE" points="589.614,464.644 591.879,460.722 589.614,456.799 585.085,456.799 582.821,460.722 
				585.085,464.644 			"/>
			<polygon fill="#90A4AE" points="575.991,464.644 578.255,460.722 575.991,456.799 571.461,456.799 569.197,460.722 
				571.461,464.644 			"/>
			<polygon fill="#90A4AE" points="562.367,464.644 564.632,460.722 562.367,456.799 557.838,456.799 555.573,460.722 
				557.838,464.644 			"/>
		</g>
	</g>
	<polygon fill="#90A4AE" points="940.996,393.055 947.613,381.594 940.996,370.134 927.763,370.134 921.147,381.594 
		927.763,393.055 	"/>
	<polygon fill="#90A4AE" points="940.996,393.055 947.613,381.594 940.996,370.134 927.763,370.134 921.147,381.594 
		927.763,393.055 	"/>
	<polygon fill="#90A4AE" points="940.996,393.055 947.613,381.594 940.996,370.134 927.763,370.134 921.147,381.594 
		927.763,393.055 	"/>
	<g>
		<polygon fill="#90A4AE" points="942.155,555.861 943.633,554.137 905.528,521.458 749.619,521.458 749.619,523.728 
			904.687,523.728 		"/>
	</g>
	<g>
		<polygon fill="#90A4AE" points="927.15,428.782 928.756,427.177 879.038,377.459 792.852,377.459 792.852,379.729 
			878.097,379.729 		"/>
	</g>
	<g>
		<polygon fill="#90A4AE" points="706.569,447.079 858.969,447.079 877.099,428.948 875.494,427.343 858.028,444.808 
			706.569,444.808 		"/>
	</g>
	<g>
		<polygon fill="#90A4AE" points="880.035,609.296 881.641,607.69 851.507,577.556 696.871,577.556 696.871,579.826 
			850.566,579.826 		"/>
	</g>
	<g>
		<polygon fill="#90A4AE" points="696.871,641.7 878.186,641.7 908.888,610.998 907.283,609.393 877.245,639.43 696.871,639.43 		
			"/>
	</g>
</g>
</svg>
